{
  "accessors": [
    {
      "bufferView": 2,
      "componentType": 5126,
      "count": 65532,
      "max": [
        0.1794765591621399,
        -0.15035241842269897,
        3.3357808589935303
      ],
      "min": [
        -0.6254663467407227,
        -2.2113094329833984,
        2.4254589080810547
      ],
      "type": "VEC3"
    },
    {
      "bufferView": 2,
      "byteOffset": 786384,
      "componentType": 5126,
      "count": 65532,
      "max": [
        0.999937117099762,
        0.999992847442627,
        0.9999955892562866
      ],
      "min": [
        -0.9999626278877258,
        -0.9992740154266357,
        -0.9999997019767761
      ],
      "type": "VEC3"
    },
    {
      "bufferView": 1,
      "componentType": 5126,
      "count": 65532,
      "max": [
        0.9994609355926514,
        0.9997240304946899
      ],
      "min": [
        0.000244140625,
        0.01586925983428955
      ],
      "type": "VEC2"
    },
    {
      "bufferView": 0,
      "componentType": 5125,
      "count": 309534,
      "type": "SCALAR"
    },
    {
      "bufferView": 2,
      "byteOffset": 1572768,
      "componentType": 5126,
      "count": 65532,
      "max": [
        0.4851160943508148,
        -0.1529308408498764,
        3.3333511352539063
      ],
      "min": [
        -0.6253321170806885,
        -2.4869205951690674,
        2.111590623855591
      ],
      "type": "VEC3"
    },
    {
      "bufferView": 2,
      "byteOffset": 2359152,
      "componentType": 5126,
      "count": 65532,
      "max": [
        0.9999739527702332,
        0.9999813437461853,
        0.9999958872795105
      ],
      "min": [
        -0.9993042349815369,
        -0.9999985098838806,
        -0.9999997019767761
      ],
      "type": "VEC3"
    },
    {
      "bufferView": 1,
      "byteOffset": 524256,
      "componentType": 5126,
      "count": 65532,
      "max": [
        0.9997553825378418,
        0.999704897403717
      ],
      "min": [
        0.000244140625,
        0.02563488483428955
      ],
      "type": "VEC2"
    },
    {
      "bufferView": 0,
      "byteOffset": 1238136,
      "componentType": 5125,
      "count": 258885,
      "type": "SCALAR"
    },
    {
      "bufferView": 2,
      "byteOffset": 3145536,
      "componentType": 5126,
      "count": 65532,
      "max": [
        0.4841398596763611,
        -0.11194869130849838,
        3.3106765747070313
      ],
      "min": [
        -0.5781247019767761,
        -2.531977415084839,
        0.8357198238372803
      ],
      "type": "VEC3"
    },
    {
      "bufferView": 2,
      "byteOffset": 3931920,
      "componentType": 5126,
      "count": 65532,
      "max": [
        0.9999871253967285,
        0.9999669194221497,
        0.9999845623970032
      ],
      "min": [
        -0.9934500455856323,
        -0.999642014503479,
        -0.999968945980072
      ],
      "type": "VEC3"
    },
    {
      "bufferView": 1,
      "byteOffset": 1048512,
      "componentType": 5126,
      "count": 65532,
      "max": [
        0.9996675252914429,
        0.9997553825378418
      ],
      "min": [
        0.000244140625,
        0.02954113483428955
      ],
      "type": "VEC2"
    },
    {
      "bufferView": 0,
      "byteOffset": 2273676,
      "componentType": 5125,
      "count": 273903,
      "type": "SCALAR"
    },
    {
      "bufferView": 2,
      "byteOffset": 4718304,
      "componentType": 5126,
      "count": 65532,
      "max": [
        0.22085359692573547,
        -0.13549914956092834,
        2.6535627841949463
      ],
      "min": [
        -0.6060805320739746,
        -2.0968799591064453,
        0.8320822715759277
      ],
      "type": "VEC3"
    },
    {
      "bufferView": 2,
      "byteOffset": 5504688,
      "componentType": 5126,
      "count": 65532,
      "max": [
        0.9999983906745911,
        0.9998968839645386,
        0.9999861121177673
      ],
      "min": [
        -0.9956222176551819,
        -0.9999481439590454,
        -0.9999884366989136
      ],
      "type": "VEC3"
    },
    {
      "bufferView": 1,
      "byteOffset": 1572768,
      "componentType": 5126,
      "count": 65532,
      "max": [
        0.9994615912437439,
        0.9997445344924927
      ],
      "min": [
        0.000244140625,
        0.006103634834289551
      ],
      "type": "VEC2"
    },
    {
      "bufferView": 0,
      "byteOffset": 3369288,
      "componentType": 5125,
      "count": 291867,
      "type": "SCALAR"
    },
    {
      "bufferView": 2,
      "byteOffset": 6291072,
      "componentType": 5126,
      "count": 65532,
      "max": [
        -0.06192850321531296,
        -0.14810875058174133,
        2.6478018760681152
      ],
      "min": [
        -0.6060805320739746,
        -1.3571044206619263,
        0.8320827484130859
      ],
      "type": "VEC3"
    },
    {
      "bufferView": 2,
      "byteOffset": 7077456,
      "componentType": 5126,
      "count": 65532,
      "max": [
        0.9999974966049194,
        0.9999985694885254,
        0.9999688863754272
      ],
      "min": [
        -0.9967312216758728,
        -0.9990598559379578,
        -0.9999973773956299
      ],
      "type": "VEC3"
    },
    {
      "bufferView": 1,
      "byteOffset": 2097024,
      "componentType": 5126,
      "count": 65532,
      "max": [
        0.9997528791427612,
        0.9997482895851135
      ],
      "min": [
        0.000244140625,
        0.0031739473342895508
      ],
      "type": "VEC2"
    },
    {
      "bufferView": 0,
      "byteOffset": 4536756,
      "componentType": 5125,
      "count": 273873,
      "type": "SCALAR"
    },
    {
      "bufferView": 2,
      "byteOffset": 7863840,
      "componentType": 5126,
      "count": 65534,
      "max": [
        0.6057685017585754,
        -0.5051318407058716,
        2.652324676513672
      ],
      "min": [
        -0.5781246423721313,
        -2.492624282836914,
        0.889976978302002
      ],
      "type": "VEC3"
    },
    {
      "bufferView": 2,
      "byteOffset": 8650248,
      "componentType": 5126,
      "count": 65534,
      "max": [
        0.9999983906745911,
        0.9999575018882751,
        0.9999983310699463
      ],
      "min": [
        -0.9995827078819275,
        -0.9999999403953552,
        -0.9999973773956299
      ],
      "type": "VEC3"
    },
    {
      "bufferView": 1,
      "byteOffset": 2621280,
      "componentType": 5126,
      "count": 65534,
      "max": [
        0.9997415542602539,
        0.9997337460517883
      ],
      "min": [
        0.000244140625,
        0.00805675983428955
      ],
      "type": "VEC2"
    },
    {
      "bufferView": 0,
      "byteOffset": 5632248,
      "componentType": 5125,
      "count": 265140,
      "type": "SCALAR"
    },
    {
      "bufferView": 2,
      "byteOffset": 9436656,
      "componentType": 5126,
      "count": 65532,
      "max": [
        0.5919663906097412,
        -1.4853523969650269,
        2.3085649013519287
      ],
      "min": [
        -0.24028055369853973,
        -2.4890408515930176,
        0.8848018050193787
      ],
      "type": "VEC3"
    },
    {
      "bufferView": 2,
      "byteOffset": 10223040,
      "componentType": 5126,
      "count": 65532,
      "max": [
        0.9999812245368958,
        0.9999178647994995,
        0.9999992251396179
      ],
      "min": [
        -0.9895573258399963,
        -0.9999856352806091,
        -0.9999765753746033
      ],
      "type": "VEC3"
    },
    {
      "bufferView": 1,
      "byteOffset": 3145552,
      "componentType": 5126,
      "count": 65532,
      "max": [
        0.999749481678009,
        0.9997451901435852
      ],
      "min": [
        0.000244140625,
        0.006103634834289551
      ],
      "type": "VEC2"
    },
    {
      "bufferView": 0,
      "byteOffset": 6692808,
      "componentType": 5125,
      "count": 268374,
      "type": "SCALAR"
    },
    {
      "bufferView": 2,
      "byteOffset": 11009424,
      "componentType": 5126,
      "count": 65533,
      "max": [
        0.605739951133728,
        -1.4298774003982544,
        2.978778123855591
      ],
      "min": [
        -0.5781248211860657,
        -2.4869205951690674,
        0.8320823311805725
      ],
      "type": "VEC3"
    },
    {
      "bufferView": 2,
      "byteOffset": 11795820,
      "componentType": 5126,
      "count": 65533,
      "max": [
        0.9999871253967285,
        0.9999858736991882,
        0.999998152256012
      ],
      "min": [
        -0.9947964549064636,
        -0.9999999403953552,
        -0.9999968409538269
      ],
      "type": "VEC3"
    },
    {
      "bufferView": 1,
      "byteOffset": 3669808,
      "componentType": 5126,
      "count": 65533,
      "max": [
        0.999689519405365,
        0.9997484087944031
      ],
      "min": [
        0.000244140625,
        0.01000988483428955
      ],
      "type": "VEC2"
    },
    {
      "bufferView": 0,
      "byteOffset": 7766304,
      "componentType": 5125,
      "count": 254445,
      "type": "SCALAR"
    },
    {
      "bufferView": 2,
      "byteOffset": 12582216,
      "componentType": 5126,
      "count": 65532,
      "max": [
        0.58827805519104,
        0.007651501335203648,
        2.6473388671875
      ],
      "min": [
        -0.6255099773406982,
        -2.494382619857788,
        0.8320822715759277
      ],
      "type": "VEC3"
    },
    {
      "bufferView": 2,
      "byteOffset": 13368600,
      "componentType": 5126,
      "count": 65532,
      "max": [
        0.9999924898147583,
        0.9999858736991882,
        0.9999955296516418
      ],
      "min": [
        -0.9986143112182617,
        -0.9999985098838806,
        -0.9999787211418152
      ],
      "type": "VEC3"
    },
    {
      "bufferView": 1,
      "byteOffset": 4194072,
      "componentType": 5126,
      "count": 65532,
      "max": [
        0.9997544288635254,
        0.9997557997703552
      ],
      "min": [
        0.000244140625,
        0.02132481336593628
      ],
      "type": "VEC2"
    },
    {
      "bufferView": 0,
      "byteOffset": 8784084,
      "componentType": 5125,
      "count": 244983,
      "type": "SCALAR"
    },
    {
      "bufferView": 2,
      "byteOffset": 14154984,
      "componentType": 5126,
      "count": 65532,
      "max": [
        0.13172806799411774,
        0.006321294698864222,
        2.649610996246338
      ],
      "min": [
        -0.625149130821228,
        -1.5242772102355957,
        0.870356559753418
      ],
      "type": "VEC3"
    },
    {
      "bufferView": 2,
      "byteOffset": 14941368,
      "componentType": 5126,
      "count": 65532,
      "max": [
        0.9999952912330627,
        0.9999995827674866,
        0.9999852180480957
      ],
      "min": [
        -0.999480664730072,
        -0.999923050403595,
        -0.9999988079071045
      ],
      "type": "VEC3"
    },
    {
      "bufferView": 1,
      "byteOffset": 4718328,
      "componentType": 5126,
      "count": 65532,
      "max": [
        0.9996722340583801,
        0.9997538328170776
      ],
      "min": [
        0.000244140625,
        0.02172863483428955
      ],
      "type": "VEC2"
    },
    {
      "bufferView": 0,
      "byteOffset": 9764016,
      "componentType": 5125,
      "count": 242619,
      "type": "SCALAR"
    },
    {
      "bufferView": 2,
      "byteOffset": 15727752,
      "componentType": 5126,
      "count": 30657,
      "max": [
        0.16062022745609283,
        -0.3299168646335602,
        2.644157648086548
      ],
      "min": [
        -0.4864177107810974,
        -1.5326054096221924,
        0.8726523518562317
      ],
      "type": "VEC3"
    },
    {
      "bufferView": 2,
      "byteOffset": 16095636,
      "componentType": 5126,
      "count": 30657,
      "max": [
        0.9999421238899231,
        0.9999858140945435,
        0.9999743103981018
      ],
      "min": [
        -0.9940367937088013,
        -0.9990404844284058,
        -0.9999459385871887
      ],
      "type": "VEC3"
    },
    {
      "bufferView": 1,
      "byteOffset": 5242584,
      "componentType": 5126,
      "count": 30657,
      "max": [
        0.999739944934845,
        0.9997475743293762
      ],
      "min": [
        0.000244140625,
        0.016284644603729248
      ],
      "type": "VEC2"
    },
    {
      "bufferView": 0,
      "byteOffset": 10734492,
      "componentType": 5125,
      "count": 98472,
      "type": "SCALAR"
    }
  ],
  "asset": {
    "extras": {
      "author": "geiolaz (https://sketchfab.com/geiolaz)",
      "license": "CC-BY-4.0 (http://creativecommons.org/licenses/by/4.0/)",
      "source": "https://sketchfab.com/3d-models/ddr3-server-motherboard-3ba7b7b3855548deb15ec761ee953742",
      "title": "DDR3 server Motherboard"
    },
    "generator": "Sketchfab-16.33.0",
    "version": "2.0"
  },
  "bufferViews": [
    {
      "buffer": 0,
      "byteLength": 11128380,
      "name": "floatBufferViews",
      "target": 34963
    },
    {
      "buffer": 0,
      "byteLength": 5487840,
      "byteOffset": 11128380,
      "byteStride": 8,
      "name": "floatBufferViews",
      "target": 34962
    },
    {
      "buffer": 0,
      "byteLength": 16463520,
      "byteOffset": 16616220,
      "byteStride": 12,
      "name": "floatBufferViews",
      "target": 34962
    }
  ],
  "buffers": [
    {
      "byteLength": 33079740,
      "uri": "scene.bin"
    }
  ],
  "extensionsUsed": [
    "KHR_materials_unlit"
  ],
  "images": [
    {
      "uri": "textures/default_tex0_baseColor.jpeg"
    }
  ],
  "materials": [
    {
      "doubleSided": true,
      "extensions": {
        "KHR_materials_unlit": {}
      },
      "name": "default_tex0",
      "pbrMetallicRoughness": {
        "baseColorTexture": {
          "index": 0
        },
        "metallicFactor": 0.0
      }
    }
  ],
  "meshes": [
    {
      "name": "Object_0",
      "primitives": [
        {
          "attributes": {
            "NORMAL": 1,
            "POSITION": 0,
            "TEXCOORD_0": 2
          },
          "indices": 3,
          "material": 0,
          "mode": 4
        }
      ]
    },
    {
      "name": "Object_1",
      "primitives": [
        {
          "attributes": {
            "NORMAL": 5,
            "POSITION": 4,
            "TEXCOORD_0": 6
          },
          "indices": 7,
          "material": 0,
          "mode": 4
        }
      ]
    },
    {
      "name": "Object_2",
      "primitives": [
        {
          "attributes": {
            "NORMAL": 9,
            "POSITION": 8,
            "TEXCOORD_0": 10
          },
          "indices": 11,
          "material": 0,
          "mode": 4
        }
      ]
    },
    {
      "name": "Object_3",
      "primitives": [
        {
          "attributes": {
            "NORMAL": 13,
            "POSITION": 12,
            "TEXCOORD_0": 14
          },
          "indices": 15,
          "material": 0,
          "mode": 4
        }
      ]
    },
    {
      "name": "Object_4",
      "primitives": [
        {
          "attributes": {
            "NORMAL": 17,
            "POSITION": 16,
            "TEXCOORD_0": 18
          },
          "indices": 19,
          "material": 0,
          "mode": 4
        }
      ]
    },
    {
      "name": "Object_5",
      "primitives": [
        {
          "attributes": {
            "NORMAL": 21,
            "POSITION": 20,
            "TEXCOORD_0": 22
          },
          "indices": 23,
          "material": 0,
          "mode": 4
        }
      ]
    },
    {
      "name": "Object_6",
      "primitives": [
        {
          "attributes": {
            "NORMAL": 25,
            "POSITION": 24,
            "TEXCOORD_0": 26
          },
          "indices": 27,
          "material": 0,
          "mode": 4
        }
      ]
    },
    {
      "name": "Object_7",
      "primitives": [
        {
          "attributes": {
            "NORMAL": 29,
            "POSITION": 28,
            "TEXCOORD_0": 30
          },
          "indices": 31,
          "material": 0,
          "mode": 4
        }
      ]
    },
    {
      "name": "Object_8",
      "primitives": [
        {
          "attributes": {
            "NORMAL": 33,
            "POSITION": 32,
            "TEXCOORD_0": 34
          },
          "indices": 35,
          "material": 0,
          "mode": 4
        }
      ]
    },
    {
      "name": "Object_9",
      "primitives": [
        {
          "attributes": {
            "NORMAL": 37,
            "POSITION": 36,
            "TEXCOORD_0": 38
          },
          "indices": 39,
          "material": 0,
          "mode": 4
        }
      ]
    },
    {
      "name": "Object_10",
      "primitives": [
        {
          "attributes": {
            "NORMAL": 41,
            "POSITION": 40,
            "TEXCOORD_0": 42
          },
          "indices": 43,
          "material": 0,
          "mode": 4
        }
      ]
    }
  ],
  "nodes": [
    {
      "children": [
        1
      ],
      "matrix": [
        1.0,
        0.0,
        0.0,
        0.0,
        0.0,
        2.220446049250313e-16,
        -1.0,
        0.0,
        0.0,
        1.0,
        2.220446049250313e-16,
        0.0,
        0.0,
        0.0,
        0.0,
        1.0
      ],
      "name": "Sketchfab_model"
    },
    {
      "children": [
        2
      ],
      "name": "root"
    },
    {
      "children": [
        3
      ],
      "matrix": [
        1.0,
        0.0,
        0.0,
        0.0,
        0.0,
        2.220446049250313e-16,
        1.0,
        0.0,
        0.0,
        -1.0,
        2.220446049250313e-16,
        0.0,
        0.0,
        0.0,
        0.0,
        1.0
      ],
      "name": "GLTF_SceneRootNode"
    },
    {
      "children": [
        4,
        5,
        6,
        7,
        8,
        9,
        10,
        11,
        12,
        13,
        14
      ],
      "name": "_0"
    },
    {
      "mesh": 0,
      "name": "Object_4"
    },
    {
      "mesh": 1,
      "name": "Object_5"
    },
    {
      "mesh": 2,
      "name": "Object_6"
    },
    {
      "mesh": 3,
      "name": "Object_7"
    },
    {
      "mesh": 4,
      "name": "Object_8"
    },
    {
      "mesh": 5,
      "name": "Object_9"
    },
    {
      "mesh": 6,
      "name": "Object_10"
    },
    {
      "mesh": 7,
      "name": "Object_11"
    },
    {
      "mesh": 8,
      "name": "Object_12"
    },
    {
      "mesh": 9,
      "name": "Object_13"
    },
    {
      "mesh": 10,
      "name": "Object_14"
    }
  ],
  "samplers": [
    {
      "magFilter": 9729,
      "minFilter": 9729,
      "wrapS": 33071,
      "wrapT": 33071
    }
  ],
  "scene": 0,
  "scenes": [
    {
      "name": "Sketchfab_Scene",
      "nodes": [
        0
      ]
    }
  ],
  "textures": [
    {
      "sampler": 0,
      "source": 0
    }
  ]
}
