{
  "accessors": [
    {
      "bufferView": 2,
      "componentType": 5126,
      "count": 960,
      "max": [
        0.09269864857196808,
        3.6548171043395996,
        0.52524733543396
      ],
      "min": [
        0.006262023001909256,
        -0.9999997615814209,
        -0.5176512598991394
      ],
      "type": "VEC3"
    },
    {
      "bufferView": 2,
      "byteOffset": 11520,
      "componentType": 5126,
      "count": 960,
      "max": [
        1.0,
        0.9951862096786499,
        0.9951845407485962
      ],
      "min": [
        -1.0,
        -0.9951832890510559,
        -0.9951845407485962
      ],
      "type": "VEC3"
    },
    {
      "bufferView": 1,
      "componentType": 5126,
      "count": 960,
      "max": [
        0.9901005625724792,
        1.0233891010284424
      ],
      "min": [
        0.013857470825314522,
        0.1192503571510315
      ],
      "type": "VEC2"
    },
    {
      "bufferView": 0,
      "componentType": 5125,
      "count": 3696,
      "type": "SCALAR"
    },
    {
      "bufferView": 2,
      "byteOffset": 23040,
      "componentType": 5126,
      "count": 960,
      "max": [
        0.09269864857196808,
        3.6548171043395996,
        0.52524733543396
      ],
      "min": [
        0.006262023001909256,
        -0.9999997615814209,
        -0.5176512598991394
      ],
      "type": "VEC3"
    },
    {
      "bufferView": 2,
      "byteOffset": 34560,
      "componentType": 5126,
      "count": 960,
      "max": [
        1.0,
        0.9951862096786499,
        0.9951845407485962
      ],
      "min": [
        -1.0,
        -0.9951832890510559,
        -0.9951845407485962
      ],
      "type": "VEC3"
    },
    {
      "bufferView": 1,
      "byteOffset": 7680,
      "componentType": 5126,
      "count": 960,
      "max": [
        0.9901005625724792,
        1.0233891010284424
      ],
      "min": [
        0.013857470825314522,
        0.1192503571510315
      ],
      "type": "VEC2"
    },
    {
      "bufferView": 0,
      "byteOffset": 14784,
      "componentType": 5125,
      "count": 3696,
      "type": "SCALAR"
    },
    {
      "bufferView": 2,
      "byteOffset": 46080,
      "componentType": 5126,
      "count": 960,
      "max": [
        0.09269864857196808,
        3.6548171043395996,
        0.52524733543396
      ],
      "min": [
        0.006262023001909256,
        -0.9999997615814209,
        -0.5176512598991394
      ],
      "type": "VEC3"
    },
    {
      "bufferView": 2,
      "byteOffset": 57600,
      "componentType": 5126,
      "count": 960,
      "max": [
        1.0,
        0.9951862096786499,
        0.9951845407485962
      ],
      "min": [
        -1.0,
        -0.9951832890510559,
        -0.9951845407485962
      ],
      "type": "VEC3"
    },
    {
      "bufferView": 1,
      "byteOffset": 15360,
      "componentType": 5126,
      "count": 960,
      "max": [
        0.9901005625724792,
        1.0233891010284424
      ],
      "min": [
        0.013857470825314522,
        0.1192503571510315
      ],
      "type": "VEC2"
    },
    {
      "bufferView": 0,
      "byteOffset": 29568,
      "componentType": 5125,
      "count": 3696,
      "type": "SCALAR"
    }
  ],
  "asset": {
    "extras": {
      "author": "Diego G. (https://sketchfab.com/empty_mirror)",
      "license": "CC-BY-4.0 (http://creativecommons.org/licenses/by/4.0/)",
      "source": "https://sketchfab.com/3d-models/random-access-memory-ram-stick-pc-ab2b1c25c31b44c1a757911734bdf942",
      "title": "Random Access Memory - RAM Stick - PC"
    },
    "generator": "Sketchfab-15.87.0",
    "version": "2.0"
  },
  "bufferViews": [
    {
      "buffer": 0,
      "byteLength": 44352,
      "name": "floatBufferViews",
      "target": 34963
    },
    {
      "buffer": 0,
      "byteLength": 23040,
      "byteOffset": 44352,
      "byteStride": 8,
      "name": "floatBufferViews",
      "target": 34962
    },
    {
      "buffer": 0,
      "byteLength": 69120,
      "byteOffset": 67392,
      "byteStride": 12,
      "name": "floatBufferViews",
      "target": 34962
    }
  ],
  "buffers": [
    {
      "byteLength": 136512,
      "uri": "scene.bin"
    }
  ],
  "extensionsUsed": [
    "KHR_materials_specular"
  ],
  "images": [
    {
      "uri": "textures/Ram_Side_baseColor.png"
    },
    {
      "uri": "textures/Ram_Side_metallicRoughness.png"
    }
  ],
  "materials": [
    {
      "doubleSided": true,
      "extensions": {
        "KHR_materials_specular": {
          "specularColorFactor": [
            1.0,
            1.0,
            1.0
          ],
          "specularFactor": 0.42514415282027523
        }
      },
      "name": "Ram_Side",
      "pbrMetallicRoughness": {
        "baseColorTexture": {
          "index": 0
        },
        "metallicFactor": 0.894478916507174,
        "metallicRoughnessTexture": {
          "index": 1
        },
        "roughnessFactor": 0.40418866038448886
      }
    }
  ],
  "meshes": [
    {
      "name": "Cube_Ram Side_0",
      "primitives": [
        {
          "attributes": {
            "NORMAL": 1,
            "POSITION": 0,
            "TEXCOORD_0": 2
          },
          "indices": 3,
          "material": 0,
          "mode": 4
        }
      ]
    },
    {
      "name": "Cube.002_Ram Side_0",
      "primitives": [
        {
          "attributes": {
            "NORMAL": 5,
            "POSITION": 4,
            "TEXCOORD_0": 6
          },
          "indices": 7,
          "material": 0,
          "mode": 4
        }
      ]
    },
    {
      "name": "Cube.003_Ram Side_0",
      "primitives": [
        {
          "attributes": {
            "NORMAL": 9,
            "POSITION": 8,
            "TEXCOORD_0": 10
          },
          "indices": 11,
          "material": 0,
          "mode": 4
        }
      ]
    }
  ],
  "nodes": [
    {
      "children": [
        1
      ],
      "matrix": [
        1.0,
        0.0,
        0.0,
        0.0,
        0.0,
        2.220446049250313e-16,
        -1.0,
        0.0,
        0.0,
        1.0,
        2.220446049250313e-16,
        0.0,
        0.0,
        0.0,
        0.0,
        1.0
      ],
      "name": "Sketchfab_model"
    },
    {
      "children": [
        2
      ],
      "matrix": [
        0.009999999776482582,
        0.0,
        0.0,
        0.0,
        0.0,
        0.0,
        0.009999999776482582,
        0.0,
        0.0,
        -0.009999999776482582,
        0.0,
        0.0,
        0.0,
        0.0,
        0.0,
        1.0
      ],
      "name": "abf284cc830d4485b4ca3877a1614e2c.fbx"
    },
    {
      "children": [
        3,
        5,
        7
      ],
      "name": "RootNode"
    },
    {
      "children": [
        4
      ],
      "matrix": [
        100.0,
        0.0,
        0.0,
        0.0,
        0.0,
        -1.629206793918314e-05,
        -99.99999999999868,
        0.0,
        0.0,
        99.99999999999868,
        -1.629206793918314e-05,
        0.0,
        1.56218167877498e-14,
        70.35440826416016,
        109.85597229003906,
        1.0
      ],
      "name": "Cube"
    },
    {
      "mesh": 0,
      "name": "Cube_Ram Side_0"
    },
    {
      "children": [
        6
      ],
      "matrix": [
        -99.97921533944454,
        -1.4124739157441666,
        1.4706948783763767,
        0.0,
        0.9569741884516855,
        31.18643888137742,
        95.00785102390073,
        0.0,
        -1.8006181982455283,
        95.002163638761,
        -31.16643511950352,
        0.0,
        -23.089113235473633,
        133.99050903320313,
        -150.8340301513672,
        1.0
      ],
      "name": "Cube.002"
    },
    {
      "mesh": 1,
      "name": "Cube.002_Ram Side_0"
    },
    {
      "children": [
        8
      ],
      "matrix": [
        99.90505211238874,
        -4.022183693929124,
        1.6736412023876808,
        0.0,
        -1.7777125769851694,
        -72.7120215196528,
        -68.62799475811005,
        0.0,
        3.9772826693157284,
        68.53308662528838,
        -72.7144914042523,
        0.0,
        -67.29342651367188,
        353.6314392089844,
        -26.32891273498535,
        1.0
      ],
      "name": "Cube.003"
    },
    {
      "mesh": 2,
      "name": "Cube.003_Ram Side_0"
    }
  ],
  "samplers": [
    {
      "magFilter": 9729,
      "minFilter": 9987,
      "wrapS": 10497,
      "wrapT": 10497
    }
  ],
  "scene": 0,
  "scenes": [
    {
      "name": "Sketchfab_Scene",
      "nodes": [
        0
      ]
    }
  ],
  "textures": [
    {
      "sampler": 0,
      "source": 0
    },
    {
      "sampler": 0,
      "source": 1
    }
  ]
}
