{
  "accessors": [
    {
      "bufferView": 2,
      "componentType": 5126,
      "count": 300,
      "max": [
        269.19683837890625,
        25.0,
        -226.01327514648438
      ],
      "min": [
        199.1968536376953,
        17.0,
        -326.0132751464844
      ],
      "type": "VEC3"
    },
    {
      "bufferView": 2,
      "byteOffset": 3600,
      "componentType": 5126,
      "count": 300,
      "max": [
        1.0,
        0.0,
        1.0
      ],
      "min": [
        -1.0,
        -1.0,
        -1.0
      ],
      "type": "VEC3"
    },
    {
      "bufferView": 1,
      "componentType": 5126,
      "count": 300,
      "max": [
        3.9370079040527344,
        3.9370079040527344
      ],
      "min": [
        -3.9370079040527344,
        0.0
      ],
      "type": "VEC2"
    },
    {
      "bufferView": 1,
      "byteOffset": 2400,
      "componentType": 5126,
      "count": 300,
      "max": [
        3.9370079040527344,
        3.9370079040527344
      ],
      "min": [
        -3.9370079040527344,
        0.0
      ],
      "type": "VEC2"
    },
    {
      "bufferView": 1,
      "byteOffset": 4800,
      "componentType": 5126,
      "count": 300,
      "max": [
        3.9370079040527344,
        3.9370079040527344
      ],
      "min": [
        -3.9370079040527344,
        0.0
      ],
      "type": "VEC2"
    },
    {
      "bufferView": 1,
      "byteOffset": 7200,
      "componentType": 5126,
      "count": 300,
      "max": [
        3.9370079040527344,
        3.9370079040527344
      ],
      "min": [
        -3.9370079040527344,
        0.0
      ],
      "type": "VEC2"
    },
    {
      "bufferView": 1,
      "byteOffset": 9600,
      "componentType": 5126,
      "count": 300,
      "max": [
        3.9370079040527344,
        3.9370079040527344
      ],
      "min": [
        -3.9370079040527344,
        0.0
      ],
      "type": "VEC2"
    },
    {
      "bufferView": 1,
      "byteOffset": 12000,
      "componentType": 5126,
      "count": 300,
      "max": [
        3.9370079040527344,
        3.9370079040527344
      ],
      "min": [
        -3.9370079040527344,
        0.0
      ],
      "type": "VEC2"
    },
    {
      "bufferView": 1,
      "byteOffset": 14400,
      "componentType": 5126,
      "count": 300,
      "max": [
        3.9370079040527344,
        3.9370079040527344
      ],
      "min": [
        -3.9370079040527344,
        0.0
      ],
      "type": "VEC2"
    },
    {
      "bufferView": 1,
      "byteOffset": 16800,
      "componentType": 5126,
      "count": 300,
      "max": [
        3.9370079040527344,
        3.9370079040527344
      ],
      "min": [
        -3.9370079040527344,
        0.0
      ],
      "type": "VEC2"
    },
    {
      "bufferView": 1,
      "byteOffset": 19200,
      "componentType": 5126,
      "count": 300,
      "max": [
        3.9370079040527344,
        3.9370079040527344
      ],
      "min": [
        -3.9370079040527344,
        0.0
      ],
      "type": "VEC2"
    },
    {
      "bufferView": 1,
      "byteOffset": 21600,
      "componentType": 5126,
      "count": 300,
      "max": [
        3.9370079040527344,
        3.9370079040527344
      ],
      "min": [
        -3.9370079040527344,
        0.0
      ],
      "type": "VEC2"
    },
    {
      "bufferView": 0,
      "componentType": 5125,
      "count": 567,
      "type": "SCALAR"
    },
    {
      "bufferView": 2,
      "byteOffset": 7200,
      "componentType": 5126,
      "count": 60,
      "max": [
        256.19683837890625,
        22.0,
        -321.0132751464844
      ],
      "min": [
        223.1968536376953,
        18.0,
        -326.0132751464844
      ],
      "type": "VEC3"
    },
    {
      "bufferView": 2,
      "byteOffset": 7920,
      "componentType": 5126,
      "count": 60,
      "max": [
        1.0,
        1.0,
        -0.0
      ],
      "min": [
        -1.0,
        -1.0,
        -1.0
      ],
      "type": "VEC3"
    },
    {
      "bufferView": 1,
      "byteOffset": 24000,
      "componentType": 5126,
      "count": 60,
      "max": [
        3.9370079040527344,
        3.9370079040527344
      ],
      "min": [
        -3.9370079040527344,
        0.03937007859349251
      ],
      "type": "VEC2"
    },
    {
      "bufferView": 1,
      "byteOffset": 24480,
      "componentType": 5126,
      "count": 60,
      "max": [
        3.9370079040527344,
        3.9370079040527344
      ],
      "min": [
        -3.9370079040527344,
        0.03937007859349251
      ],
      "type": "VEC2"
    },
    {
      "bufferView": 1,
      "byteOffset": 24960,
      "componentType": 5126,
      "count": 60,
      "max": [
        3.9370079040527344,
        3.9370079040527344
      ],
      "min": [
        -3.9370079040527344,
        0.03937007859349251
      ],
      "type": "VEC2"
    },
    {
      "bufferView": 1,
      "byteOffset": 25440,
      "componentType": 5126,
      "count": 60,
      "max": [
        3.9370079040527344,
        3.9370079040527344
      ],
      "min": [
        -3.9370079040527344,
        0.03937007859349251
      ],
      "type": "VEC2"
    },
    {
      "bufferView": 1,
      "byteOffset": 25920,
      "componentType": 5126,
      "count": 60,
      "max": [
        3.9370079040527344,
        3.9370079040527344
      ],
      "min": [
        -3.9370079040527344,
        0.03937007859349251
      ],
      "type": "VEC2"
    },
    {
      "bufferView": 1,
      "byteOffset": 26400,
      "componentType": 5126,
      "count": 60,
      "max": [
        3.9370079040527344,
        3.9370079040527344
      ],
      "min": [
        -3.9370079040527344,
        0.03937007859349251
      ],
      "type": "VEC2"
    },
    {
      "bufferView": 1,
      "byteOffset": 26880,
      "componentType": 5126,
      "count": 60,
      "max": [
        3.9370079040527344,
        3.9370079040527344
      ],
      "min": [
        -3.9370079040527344,
        0.03937007859349251
      ],
      "type": "VEC2"
    },
    {
      "bufferView": 1,
      "byteOffset": 27360,
      "componentType": 5126,
      "count": 60,
      "max": [
        3.9370079040527344,
        3.9370079040527344
      ],
      "min": [
        -3.9370079040527344,
        0.03937007859349251
      ],
      "type": "VEC2"
    },
    {
      "bufferView": 1,
      "byteOffset": 27840,
      "componentType": 5126,
      "count": 60,
      "max": [
        3.9370079040527344,
        3.9370079040527344
      ],
      "min": [
        -3.9370079040527344,
        0.03937007859349251
      ],
      "type": "VEC2"
    },
    {
      "bufferView": 1,
      "byteOffset": 28320,
      "componentType": 5126,
      "count": 60,
      "max": [
        3.9370079040527344,
        3.9370079040527344
      ],
      "min": [
        -3.9370079040527344,
        0.03937007859349251
      ],
      "type": "VEC2"
    },
    {
      "bufferView": 0,
      "byteOffset": 2268,
      "componentType": 5125,
      "count": 96,
      "type": "SCALAR"
    },
    {
      "bufferView": 2,
      "byteOffset": 8640,
      "componentType": 5126,
      "count": 52,
      "max": [
        269.19683837890625,
        25.0,
        -226.01327514648438
      ],
      "min": [
        199.1968536376953,
        25.0,
        -326.0132751464844
      ],
      "type": "VEC3"
    },
    {
      "bufferView": 2,
      "byteOffset": 9264,
      "componentType": 5126,
      "count": 52,
      "max": [
        0.0,
        1.0,
        -0.0
      ],
      "min": [
        0.0,
        1.0,
        -0.0
      ],
      "type": "VEC3"
    },
    {
      "bufferView": 1,
      "byteOffset": 28800,
      "componentType": 5126,
      "count": 52,
      "max": [
        1.0,
        0.991428554058075
      ],
      "min": [
        0.0,
        0.0
      ],
      "type": "VEC2"
    },
    {
      "bufferView": 1,
      "byteOffset": 29216,
      "componentType": 5126,
      "count": 52,
      "max": [
        1.0,
        0.991428554058075
      ],
      "min": [
        0.0,
        0.0
      ],
      "type": "VEC2"
    },
    {
      "bufferView": 1,
      "byteOffset": 29632,
      "componentType": 5126,
      "count": 52,
      "max": [
        1.0,
        0.991428554058075
      ],
      "min": [
        0.0,
        0.0
      ],
      "type": "VEC2"
    },
    {
      "bufferView": 1,
      "byteOffset": 30048,
      "componentType": 5126,
      "count": 52,
      "max": [
        1.0,
        0.991428554058075
      ],
      "min": [
        0.0,
        0.0
      ],
      "type": "VEC2"
    },
    {
      "bufferView": 1,
      "byteOffset": 30464,
      "componentType": 5126,
      "count": 52,
      "max": [
        1.0,
        0.991428554058075
      ],
      "min": [
        0.0,
        0.0
      ],
      "type": "VEC2"
    },
    {
      "bufferView": 1,
      "byteOffset": 30880,
      "componentType": 5126,
      "count": 52,
      "max": [
        1.0,
        0.991428554058075
      ],
      "min": [
        0.0,
        0.0
      ],
      "type": "VEC2"
    },
    {
      "bufferView": 1,
      "byteOffset": 31296,
      "componentType": 5126,
      "count": 52,
      "max": [
        1.0,
        0.991428554058075
      ],
      "min": [
        0.0,
        0.0
      ],
      "type": "VEC2"
    },
    {
      "bufferView": 1,
      "byteOffset": 31712,
      "componentType": 5126,
      "count": 52,
      "max": [
        1.0,
        0.991428554058075
      ],
      "min": [
        0.0,
        0.0
      ],
      "type": "VEC2"
    },
    {
      "bufferView": 1,
      "byteOffset": 32128,
      "componentType": 5126,
      "count": 52,
      "max": [
        1.0,
        0.991428554058075
      ],
      "min": [
        0.0,
        0.0
      ],
      "type": "VEC2"
    },
    {
      "bufferView": 1,
      "byteOffset": 32544,
      "componentType": 5126,
      "count": 52,
      "max": [
        1.0,
        0.991428554058075
      ],
      "min": [
        0.0,
        0.0
      ],
      "type": "VEC2"
    },
    {
      "bufferView": 0,
      "byteOffset": 2652,
      "componentType": 5125,
      "count": 150,
      "type": "SCALAR"
    },
    {
      "bufferView": 2,
      "byteOffset": 9888,
      "componentType": 5126,
      "count": 4,
      "max": [
        265.19683837890625,
        17.0,
        -240.01327514648438
      ],
      "min": [
        203.1968536376953,
        17.0,
        -308.0132751464844
      ],
      "type": "VEC3"
    },
    {
      "bufferView": 2,
      "byteOffset": 9936,
      "componentType": 5126,
      "count": 4,
      "max": [
        0.0,
        -1.0,
        -0.0
      ],
      "min": [
        0.0,
        -1.0,
        -0.0
      ],
      "type": "VEC3"
    },
    {
      "bufferView": 1,
      "byteOffset": 32960,
      "componentType": 5126,
      "count": 4,
      "max": [
        -0.15748031437397003,
        3.228346347808838
      ],
      "min": [
        -2.5984251499176025,
        0.5511810779571533
      ],
      "type": "VEC2"
    },
    {
      "bufferView": 1,
      "byteOffset": 32992,
      "componentType": 5126,
      "count": 4,
      "max": [
        -0.15748031437397003,
        3.228346347808838
      ],
      "min": [
        -2.5984251499176025,
        0.5511810779571533
      ],
      "type": "VEC2"
    },
    {
      "bufferView": 1,
      "byteOffset": 33024,
      "componentType": 5126,
      "count": 4,
      "max": [
        -0.15748031437397003,
        3.228346347808838
      ],
      "min": [
        -2.5984251499176025,
        0.5511810779571533
      ],
      "type": "VEC2"
    },
    {
      "bufferView": 1,
      "byteOffset": 33056,
      "componentType": 5126,
      "count": 4,
      "max": [
        -0.15748031437397003,
        3.228346347808838
      ],
      "min": [
        -2.5984251499176025,
        0.5511810779571533
      ],
      "type": "VEC2"
    },
    {
      "bufferView": 1,
      "byteOffset": 33088,
      "componentType": 5126,
      "count": 4,
      "max": [
        -0.15748031437397003,
        3.228346347808838
      ],
      "min": [
        -2.5984251499176025,
        0.5511810779571533
      ],
      "type": "VEC2"
    },
    {
      "bufferView": 1,
      "byteOffset": 33120,
      "componentType": 5126,
      "count": 4,
      "max": [
        -0.15748031437397003,
        3.228346347808838
      ],
      "min": [
        -2.5984251499176025,
        0.5511810779571533
      ],
      "type": "VEC2"
    },
    {
      "bufferView": 1,
      "byteOffset": 33152,
      "componentType": 5126,
      "count": 4,
      "max": [
        -0.15748031437397003,
        3.228346347808838
      ],
      "min": [
        -2.5984251499176025,
        0.5511810779571533
      ],
      "type": "VEC2"
    },
    {
      "bufferView": 1,
      "byteOffset": 33184,
      "componentType": 5126,
      "count": 4,
      "max": [
        -0.15748031437397003,
        3.228346347808838
      ],
      "min": [
        -2.5984251499176025,
        0.5511810779571533
      ],
      "type": "VEC2"
    },
    {
      "bufferView": 1,
      "byteOffset": 33216,
      "componentType": 5126,
      "count": 4,
      "max": [
        -0.15748031437397003,
        3.228346347808838
      ],
      "min": [
        -2.5984251499176025,
        0.5511810779571533
      ],
      "type": "VEC2"
    },
    {
      "bufferView": 1,
      "byteOffset": 33248,
      "componentType": 5126,
      "count": 4,
      "max": [
        -0.15748031437397003,
        3.228346347808838
      ],
      "min": [
        -2.5984251499176025,
        0.5511810779571533
      ],
      "type": "VEC2"
    },
    {
      "bufferView": 0,
      "byteOffset": 3252,
      "componentType": 5125,
      "count": 6,
      "type": "SCALAR"
    },
    {
      "bufferView": 2,
      "byteOffset": 9984,
      "componentType": 5126,
      "count": 4,
      "max": [
        265.19683837890625,
        17.0,
        -240.01327514648438
      ],
      "min": [
        203.1968536376953,
        17.0,
        -308.0132751464844
      ],
      "type": "VEC3"
    },
    {
      "bufferView": 2,
      "byteOffset": 10032,
      "componentType": 5126,
      "count": 4,
      "max": [
        0.0,
        -1.0,
        -0.0
      ],
      "min": [
        0.0,
        -1.0,
        -0.0
      ],
      "type": "VEC3"
    },
    {
      "bufferView": 1,
      "byteOffset": 33280,
      "componentType": 5126,
      "count": 4,
      "max": [
        1.0,
        1.0
      ],
      "min": [
        0.0,
        0.0
      ],
      "type": "VEC2"
    },
    {
      "bufferView": 1,
      "byteOffset": 33312,
      "componentType": 5126,
      "count": 4,
      "max": [
        1.0,
        1.0
      ],
      "min": [
        0.0,
        0.0
      ],
      "type": "VEC2"
    },
    {
      "bufferView": 1,
      "byteOffset": 33344,
      "componentType": 5126,
      "count": 4,
      "max": [
        1.0,
        1.0
      ],
      "min": [
        0.0,
        0.0
      ],
      "type": "VEC2"
    },
    {
      "bufferView": 1,
      "byteOffset": 33376,
      "componentType": 5126,
      "count": 4,
      "max": [
        1.0,
        1.0
      ],
      "min": [
        0.0,
        0.0
      ],
      "type": "VEC2"
    },
    {
      "bufferView": 1,
      "byteOffset": 33408,
      "componentType": 5126,
      "count": 4,
      "max": [
        1.0,
        1.0
      ],
      "min": [
        0.0,
        0.0
      ],
      "type": "VEC2"
    },
    {
      "bufferView": 1,
      "byteOffset": 33440,
      "componentType": 5126,
      "count": 4,
      "max": [
        1.0,
        1.0
      ],
      "min": [
        0.0,
        0.0
      ],
      "type": "VEC2"
    },
    {
      "bufferView": 1,
      "byteOffset": 33472,
      "componentType": 5126,
      "count": 4,
      "max": [
        1.0,
        1.0
      ],
      "min": [
        0.0,
        0.0
      ],
      "type": "VEC2"
    },
    {
      "bufferView": 1,
      "byteOffset": 33504,
      "componentType": 5126,
      "count": 4,
      "max": [
        1.0,
        1.0
      ],
      "min": [
        0.0,
        0.0
      ],
      "type": "VEC2"
    },
    {
      "bufferView": 1,
      "byteOffset": 33536,
      "componentType": 5126,
      "count": 4,
      "max": [
        1.0,
        1.0
      ],
      "min": [
        0.0,
        0.0
      ],
      "type": "VEC2"
    },
    {
      "bufferView": 1,
      "byteOffset": 33568,
      "componentType": 5126,
      "count": 4,
      "max": [
        1.0,
        1.0
      ],
      "min": [
        0.0,
        0.0
      ],
      "type": "VEC2"
    },
    {
      "bufferView": 0,
      "byteOffset": 3276,
      "componentType": 5125,
      "count": 6,
      "type": "SCALAR"
    }
  ],
  "asset": {
    "extras": {
      "author": "MarkCP (https://sketchfab.com/MarkCP)",
      "license": "CC-BY-4.0 (http://creativecommons.org/licenses/by/4.0/)",
      "source": "https://sketchfab.com/3d-models/ssd-solid-state-drive-dc92372c89f54d82ab378599d3170065",
      "title": "(SSD) Solid State Drive"
    },
    "generator": "Sketchfab-12.81.0",
    "version": "2.0"
  },
  "bufferViews": [
    {
      "buffer": 0,
      "byteLength": 3300,
      "name": "floatBufferViews",
      "target": 34963
    },
    {
      "buffer": 0,
      "byteLength": 33600,
      "byteOffset": 3300,
      "byteStride": 8,
      "name": "floatBufferViews",
      "target": 34962
    },
    {
      "buffer": 0,
      "byteLength": 10080,
      "byteOffset": 36900,
      "byteStride": 12,
      "name": "floatBufferViews",
      "target": 34962
    }
  ],
  "buffers": [
    {
      "byteLength": 46980,
      "uri": "scene.bin"
    }
  ],
  "images": [
    {
      "uri": "textures/ssd_png_baseColor.png"
    },
    {
      "uri": "textures/c5b85f04_329b_44c3_81b3_ae341b262458_baseColor.png"
    }
  ],
  "materials": [
    {
      "doubleSided": true,
      "name": "Katherine_Badge2",
      "pbrMetallicRoughness": {
        "baseColorFactor": [
          0.207843,
          0.203922,
          0.203922,
          1.0
        ],
        "metallicFactor": 0.0,
        "roughnessFactor": 0.9302134966129227
      }
    },
    {
      "doubleSided": true,
      "name": "Katherine_Glasses1",
      "pbrMetallicRoughness": {
        "baseColorFactor": [
          0.0,
          0.0,
          0.0,
          1.0
        ],
        "metallicFactor": 0.0,
        "roughnessFactor": 0.9302134966129227
      }
    },
    {
      "doubleSided": true,
      "name": "ssd_png",
      "pbrMetallicRoughness": {
        "baseColorTexture": {
          "index": 0
        },
        "metallicFactor": 0.0,
        "roughnessFactor": 0.9302134966129227
      }
    },
    {
      "doubleSided": true,
      "name": "Katherine_Skin1",
      "pbrMetallicRoughness": {
        "baseColorFactor": [
          0.517647,
          0.384314,
          0.305882,
          1.0
        ],
        "metallicFactor": 0.0,
        "roughnessFactor": 0.9302134966129227
      }
    },
    {
      "doubleSided": true,
      "name": "c5b85f04_329b_44c3_81b3_ae341b262458",
      "pbrMetallicRoughness": {
        "baseColorTexture": {
          "index": 1
        },
        "metallicFactor": 0.0
      }
    }
  ],
  "meshes": [
    {
      "name": "Mesh1_Katherine_Badge2_0",
      "primitives": [
        {
          "attributes": {
            "NORMAL": 1,
            "POSITION": 0,
            "TEXCOORD_0": 2,
            "TEXCOORD_1": 3,
            "TEXCOORD_2": 4,
            "TEXCOORD_3": 5,
            "TEXCOORD_4": 6,
            "TEXCOORD_5": 7,
            "TEXCOORD_6": 8,
            "TEXCOORD_7": 9,
            "TEXCOORD_8": 10,
            "TEXCOORD_9": 11
          },
          "indices": 12,
          "material": 0,
          "mode": 4
        }
      ]
    },
    {
      "name": "Mesh1_Katherine_Glasses1_0",
      "primitives": [
        {
          "attributes": {
            "NORMAL": 14,
            "POSITION": 13,
            "TEXCOORD_0": 15,
            "TEXCOORD_1": 16,
            "TEXCOORD_2": 17,
            "TEXCOORD_3": 18,
            "TEXCOORD_4": 19,
            "TEXCOORD_5": 20,
            "TEXCOORD_6": 21,
            "TEXCOORD_7": 22,
            "TEXCOORD_8": 23,
            "TEXCOORD_9": 24
          },
          "indices": 25,
          "material": 1,
          "mode": 4
        }
      ]
    },
    {
      "name": "Mesh1_ssd_png_0",
      "primitives": [
        {
          "attributes": {
            "NORMAL": 27,
            "POSITION": 26,
            "TEXCOORD_0": 28,
            "TEXCOORD_1": 29,
            "TEXCOORD_2": 30,
            "TEXCOORD_3": 31,
            "TEXCOORD_4": 32,
            "TEXCOORD_5": 33,
            "TEXCOORD_6": 34,
            "TEXCOORD_7": 35,
            "TEXCOORD_8": 36,
            "TEXCOORD_9": 37
          },
          "indices": 38,
          "material": 2,
          "mode": 4
        }
      ]
    },
    {
      "name": "Mesh1_Katherine_Skin1_0",
      "primitives": [
        {
          "attributes": {
            "NORMAL": 40,
            "POSITION": 39,
            "TEXCOORD_0": 41,
            "TEXCOORD_1": 42,
            "TEXCOORD_2": 43,
            "TEXCOORD_3": 44,
            "TEXCOORD_4": 45,
            "TEXCOORD_5": 46,
            "TEXCOORD_6": 47,
            "TEXCOORD_7": 48,
            "TEXCOORD_8": 49,
            "TEXCOORD_9": 50
          },
          "indices": 51,
          "material": 3,
          "mode": 4
        }
      ]
    },
    {
      "name": "Mesh1_c5b85f04_329b_44c3_81b3_ae341b262458_0",
      "primitives": [
        {
          "attributes": {
            "NORMAL": 53,
            "POSITION": 52,
            "TEXCOORD_0": 54,
            "TEXCOORD_1": 55,
            "TEXCOORD_2": 56,
            "TEXCOORD_3": 57,
            "TEXCOORD_4": 58,
            "TEXCOORD_5": 59,
            "TEXCOORD_6": 60,
            "TEXCOORD_7": 61,
            "TEXCOORD_8": 62,
            "TEXCOORD_9": 63
          },
          "indices": 64,
          "material": 4,
          "mode": 4
        }
      ]
    }
  ],
  "nodes": [
    {
      "children": [
        1
      ],
      "matrix": [
        1.0,
        0.0,
        0.0,
        0.0,
        0.0,
        2.220446049250313e-16,
        -1.0,
        0.0,
        0.0,
        1.0,
        2.220446049250313e-16,
        0.0,
        0.0,
        0.0,
        0.0,
        1.0
      ],
      "name": "Sketchfab_model"
    },
    {
      "children": [
        2
      ],
      "matrix": [
        0.009999999776482582,
        0.0,
        0.0,
        0.0,
        0.0,
        0.0,
        0.009999999776482582,
        0.0,
        0.0,
        -0.009999999776482582,
        0.0,
        0.0,
        0.0,
        0.0,
        0.0,
        1.0
      ],
      "name": "12f9c982-90e9-45bb-8169-58c95b9685d2.fbx"
    },
    {
      "children": [
        3
      ],
      "name": "RootNode"
    },
    {
      "children": [
        4
      ],
      "name": "Model"
    },
    {
      "children": [
        5
      ],
      "name": "Group1"
    },
    {
      "children": [
        6,
        7,
        8,
        9,
        10
      ],
      "name": "Mesh1"
    },
    {
      "mesh": 0,
      "name": "Mesh1_Katherine_Badge2_0"
    },
    {
      "mesh": 1,
      "name": "Mesh1_Katherine_Glasses1_0"
    },
    {
      "mesh": 2,
      "name": "Mesh1_ssd_png_0"
    },
    {
      "mesh": 3,
      "name": "Mesh1_Katherine_Skin1_0"
    },
    {
      "mesh": 4,
      "name": "Mesh1_c5b85f04_329b_44c3_81b3_ae341b262458_0"
    }
  ],
  "samplers": [
    {
      "magFilter": 9729,
      "minFilter": 9987,
      "wrapS": 10497,
      "wrapT": 10497
    }
  ],
  "scene": 0,
  "scenes": [
    {
      "name": "Sketchfab_Scene",
      "nodes": [
        0
      ]
    }
  ],
  "textures": [
    {
      "sampler": 0,
      "source": 0
    },
    {
      "sampler": 0,
      "source": 1
    }
  ]
}
