{
  "accessors": [
    {
      "bufferView": 2,
      "componentType": 5126,
      "count": 1570,
      "max": [
        0.6516540050506592,
        0.6456030011177063,
        0.27447399497032166
      ],
      "min": [
        -0.6647229790687561,
        -0.670773983001709,
        0.08088699728250504
      ],
      "type": "VEC3"
    },
    {
      "bufferView": 2,
      "byteOffset": 18840,
      "componentType": 5126,
      "count": 1570,
      "max": [
        1.0,
        1.0,
        1.0
      ],
      "min": [
        -1.0,
        -1.0,
        -1.0
      ],
      "type": "VEC3"
    },
    {
      "bufferView": 1,
      "componentType": 5126,
      "count": 1570,
      "max": [
        0.6778870224952698,
        0.8546460270881653
      ],
      "min": [
        0.3366740047931671,
        0.24773600697517395
      ],
      "type": "VEC2"
    },
    {
      "bufferView": 0,
      "componentType": 5125,
      "count": 7104,
      "type": "SCALAR"
    },
    {
      "bufferView": 2,
      "byteOffset": 37680,
      "componentType": 5126,
      "count": 468,
      "max": [
        -0.6199150085449219,
        -0.36117300391197205,
        0.2548989951610565
      ],
      "min": [
        -0.9280080199241638,
        -0.6692669987678528,
        0.17657099664211273
      ],
      "type": "VEC3"
    },
    {
      "bufferView": 2,
      "byteOffset": 43296,
      "componentType": 5126,
      "count": 468,
      "max": [
        0.9873062372207642,
        0.9873251914978027,
        1.0
      ],
      "min": [
        -0.9873218536376953,
        -0.9873251914978027,
        -0.9940691590309143
      ],
      "type": "VEC3"
    },
    {
      "bufferView": 1,
      "byteOffset": 12560,
      "componentType": 5126,
      "count": 468,
      "max": [
        0.751043975353241,
        0.3941519856452942
      ],
      "min": [
        0.26572901010513306,
        0.24265000224113464
      ],
      "type": "VEC2"
    },
    {
      "bufferView": 0,
      "byteOffset": 28416,
      "componentType": 5125,
      "count": 1818,
      "type": "SCALAR"
    },
    {
      "bufferView": 2,
      "byteOffset": 48912,
      "componentType": 5126,
      "count": 488,
      "max": [
        -0.7647119760513306,
        -0.12526899576187134,
        0.24646000564098358
      ],
      "min": [
        -0.9152989983558655,
        -0.27585598826408386,
        0.20738500356674194
      ],
      "type": "VEC3"
    },
    {
      "bufferView": 2,
      "byteOffset": 54768,
      "componentType": 5126,
      "count": 488,
      "max": [
        0.9865260124206543,
        0.9865260124206543,
        1.0
      ],
      "min": [
        -0.9865260124206543,
        -0.9865260124206543,
        -0.9940691590309143
      ],
      "type": "VEC3"
    },
    {
      "bufferView": 1,
      "byteOffset": 16304,
      "componentType": 5126,
      "count": 488,
      "max": [
        0.33708399534225464,
        0.488986998796463
      ],
      "min": [
        0.26286599040031433,
        0.24270400404930115
      ],
      "type": "VEC2"
    },
    {
      "bufferView": 0,
      "byteOffset": 35688,
      "componentType": 5125,
      "count": 1818,
      "type": "SCALAR"
    },
    {
      "bufferView": 2,
      "byteOffset": 60624,
      "componentType": 5126,
      "count": 24330,
      "max": [
        1.07280695438385,
        0.6640980243682861,
        0.14578400552272797
      ],
      "min": [
        -1.0814330577850342,
        -0.7156310081481934,
        -0.12998899817466736
      ],
      "type": "VEC3"
    },
    {
      "bufferView": 2,
      "byteOffset": 352584,
      "componentType": 5126,
      "count": 24330,
      "max": [
        0.9998538494110107,
        0.892218828201294,
        0.9033995866775513
      ],
      "min": [
        -0.9998538494110107,
        -0.892218828201294,
        -0.8408209085464478
      ],
      "type": "VEC3"
    },
    {
      "bufferView": 1,
      "byteOffset": 20208,
      "componentType": 5126,
      "count": 24330,
      "max": [
        0.875,
        1.0
      ],
      "min": [
        0.0,
        0.0
      ],
      "type": "VEC2"
    },
    {
      "bufferView": 0,
      "byteOffset": 42960,
      "componentType": 5125,
      "count": 130716,
      "type": "SCALAR"
    },
    {
      "bufferView": 2,
      "byteOffset": 644544,
      "componentType": 5126,
      "count": 1774,
      "max": [
        0.42613500356674194,
        -0.4692550003528595,
        0.0864730030298233
      ],
      "min": [
        -0.4244939982891083,
        -0.7392770051956177,
        -0.14060500264167786
      ],
      "type": "VEC3"
    },
    {
      "bufferView": 2,
      "byteOffset": 665832,
      "componentType": 5126,
      "count": 1774,
      "max": [
        1.0,
        1.0,
        1.0
      ],
      "min": [
        -1.0,
        -1.0,
        -1.0
      ],
      "type": "VEC3"
    },
    {
      "bufferView": 1,
      "byteOffset": 214848,
      "componentType": 5126,
      "count": 1774,
      "max": [
        0.5282149910926819,
        0.954338014125824
      ],
      "min": [
        0.49955400824546814,
        0.9021880030632019
      ],
      "type": "VEC2"
    },
    {
      "bufferView": 0,
      "byteOffset": 565824,
      "componentType": 5125,
      "count": 8634,
      "type": "SCALAR"
    },
    {
      "bufferView": 2,
      "byteOffset": 687120,
      "componentType": 5126,
      "count": 4347,
      "max": [
        0.405007004737854,
        0.6759700179100037,
        0.15452300012111664
      ],
      "min": [
        -0.405007004737854,
        -0.7391740083694458,
        -0.16139400005340576
      ],
      "type": "VEC3"
    },
    {
      "bufferView": 2,
      "byteOffset": 739284,
      "componentType": 5126,
      "count": 4347,
      "max": [
        1.0,
        0.309908002614975,
        1.0
      ],
      "min": [
        -1.0,
        -1.0,
        -1.0
      ],
      "type": "VEC3"
    },
    {
      "bufferView": 1,
      "byteOffset": 229040,
      "componentType": 5126,
      "count": 4347,
      "max": [
        0.5414639711380005,
        0.9697520136833191
      ],
      "min": [
        0.4583739936351776,
        0.29866400361061096
      ],
      "type": "VEC2"
    },
    {
      "bufferView": 0,
      "byteOffset": 600360,
      "componentType": 5125,
      "count": 9030,
      "type": "SCALAR"
    },
    {
      "bufferView": 2,
      "byteOffset": 791448,
      "componentType": 5126,
      "count": 65532,
      "max": [
        1.0555460453033447,
        0.7405269742012024,
        0.23149199783802032
      ],
      "min": [
        -1.064208984375,
        -0.7648419737815857,
        -0.19533699750900269
      ],
      "type": "VEC3"
    },
    {
      "bufferView": 2,
      "byteOffset": 1577832,
      "componentType": 5126,
      "count": 65532,
      "max": [
        1.0,
        1.0,
        1.0
      ],
      "min": [
        -1.0,
        -1.0,
        -1.0
      ],
      "type": "VEC3"
    },
    {
      "bufferView": 1,
      "byteOffset": 263816,
      "componentType": 5126,
      "count": 65532,
      "max": [
        0.5976179838180542,
        0.9633709788322449
      ],
      "min": [
        0.40082401037216187,
        0.28598201274871826
      ],
      "type": "VEC2"
    },
    {
      "bufferView": 0,
      "byteOffset": 636480,
      "componentType": 5125,
      "count": 358257,
      "type": "SCALAR"
    },
    {
      "bufferView": 2,
      "byteOffset": 2364216,
      "componentType": 5126,
      "count": 54428,
      "max": [
        1.0555460453033447,
        0.7403550148010254,
        0.23149199783802032
      ],
      "min": [
        -1.0642080307006836,
        -0.764835000038147,
        -0.19533699750900269
      ],
      "type": "VEC3"
    },
    {
      "bufferView": 2,
      "byteOffset": 3017352,
      "componentType": 5126,
      "count": 54428,
      "max": [
        1.0,
        1.0,
        1.0
      ],
      "min": [
        -1.0,
        -1.0,
        -1.0
      ],
      "type": "VEC3"
    },
    {
      "bufferView": 1,
      "byteOffset": 788072,
      "componentType": 5126,
      "count": 54428,
      "max": [
        0.5943729877471924,
        0.961421012878418
      ],
      "min": [
        0.40067100524902344,
        0.28488200902938843
      ],
      "type": "VEC2"
    },
    {
      "bufferView": 0,
      "byteOffset": 2069508,
      "componentType": 5125,
      "count": 292809,
      "type": "SCALAR"
    },
    {
      "bufferView": 2,
      "byteOffset": 3670488,
      "componentType": 5126,
      "count": 6755,
      "max": [
        -0.6843039989471436,
        0.7472530007362366,
        -0.0665770024061203
      ],
      "min": [
        -0.8720139861106873,
        0.7177990078926086,
        -0.153328999876976
      ],
      "type": "VEC3"
    },
    {
      "bufferView": 2,
      "byteOffset": 3751548,
      "componentType": 5126,
      "count": 6755,
      "max": [
        0.9999945163726807,
        1.0,
        0.9999061822891235
      ],
      "min": [
        -0.9999966621398926,
        -1.0,
        -0.9999916553497314
      ],
      "type": "VEC3"
    },
    {
      "bufferView": 1,
      "byteOffset": 1223496,
      "componentType": 5126,
      "count": 6755,
      "max": [
        0.5797449946403503,
        0.33905500173568726
      ],
      "min": [
        0.0,
        0.0
      ],
      "type": "VEC2"
    },
    {
      "bufferView": 0,
      "byteOffset": 3240744,
      "componentType": 5125,
      "count": 39168,
      "type": "SCALAR"
    },
    {
      "bufferView": 2,
      "byteOffset": 3832608,
      "componentType": 5126,
      "count": 369,
      "max": [
        0.9174730181694031,
        -0.12398400157690048,
        0.2576020061969757
      ],
      "min": [
        -0.9162539839744568,
        -0.6692669987678528,
        -0.028353000059723854
      ],
      "type": "VEC3"
    },
    {
      "bufferView": 2,
      "byteOffset": 3837036,
      "componentType": 5126,
      "count": 369,
      "max": [
        0.9951865673065186,
        0.9951865673065186,
        1.0
      ],
      "min": [
        -0.9951865673065186,
        -0.9951865673065186,
        -1.0
      ],
      "type": "VEC3"
    },
    {
      "bufferView": 1,
      "byteOffset": 1277536,
      "componentType": 5126,
      "count": 369,
      "max": [
        1.0,
        1.0
      ],
      "min": [
        0.0,
        0.009999999776482582
      ],
      "type": "VEC2"
    },
    {
      "bufferView": 0,
      "byteOffset": 3397416,
      "componentType": 5125,
      "count": 1038,
      "type": "SCALAR"
    }
  ],
  "asset": {
    "extras": {
      "author": "ecjhr0awipso (https://sketchfab.com/ecjhr0awipso)",
      "license": "CC-BY-4.0 (http://creativecommons.org/licenses/by/4.0/)",
      "source": "https://sketchfab.com/3d-models/playstation-1-96bed8283f2940d7bb4b1866ab0637a2",
      "title": "Playstation 1"
    },
    "generator": "Sketchfab-12.64.0",
    "version": "2.0"
  },
  "bufferViews": [
    {
      "buffer": 0,
      "byteLength": 3401568,
      "name": "floatBufferViews",
      "target": 34963
    },
    {
      "buffer": 0,
      "byteLength": 1280488,
      "byteOffset": 3401568,
      "byteStride": 8,
      "name": "floatBufferViews",
      "target": 34962
    },
    {
      "buffer": 0,
      "byteLength": 3841464,
      "byteOffset": 4682056,
      "byteStride": 12,
      "name": "floatBufferViews",
      "target": 34962
    }
  ],
  "buffers": [
    {
      "byteLength": 8523520,
      "uri": "scene.bin"
    }
  ],
  "images": [
    {
      "uri": "textures/Material.001_baseColor.jpeg"
    },
    {
      "uri": "textures/Material.002_baseColor.png"
    }
  ],
  "materials": [
    {
      "doubleSided": true,
      "name": "Material.001",
      "pbrMetallicRoughness": {
        "baseColorTexture": {
          "index": 0
        },
        "metallicFactor": 0.0,
        "roughnessFactor": 0.7551574096661102
      }
    },
    {
      "doubleSided": true,
      "name": "Material.002",
      "pbrMetallicRoughness": {
        "baseColorTexture": {
          "index": 1
        },
        "metallicFactor": 0.0,
        "roughnessFactor": 0.7551574096661102
      }
    },
    {
      "doubleSided": true,
      "name": "Material.003",
      "pbrMetallicRoughness": {
        "baseColorTexture": {
          "index": 0
        },
        "metallicFactor": 0.0,
        "roughnessFactor": 0.7551574096661102
      }
    },
    {
      "doubleSided": true,
      "name": "Material.004",
      "pbrMetallicRoughness": {
        "baseColorTexture": {
          "index": 0
        },
        "metallicFactor": 0.0,
        "roughnessFactor": 0.7551574096661102
      }
    },
    {
      "doubleSided": true,
      "name": "Material.005",
      "pbrMetallicRoughness": {
        "baseColorTexture": {
          "index": 0
        },
        "metallicFactor": 0.0,
        "roughnessFactor": 0.7551574096661102
      }
    },
    {
      "doubleSided": true,
      "name": "Material.006",
      "pbrMetallicRoughness": {
        "baseColorFactor": [
          0.434154,
          0.428691,
          0.456411,
          1.0
        ],
        "metallicFactor": 0.0,
        "roughnessFactor": 0.7551574096661102
      }
    },
    {
      "doubleSided": true,
      "name": "Material.007",
      "pbrMetallicRoughness": {
        "baseColorTexture": {
          "index": 1
        },
        "metallicFactor": 0.0,
        "roughnessFactor": 0.7551574096661102
      }
    }
  ],
  "meshes": [
    {
      "name": "Object_0",
      "primitives": [
        {
          "attributes": {
            "NORMAL": 1,
            "POSITION": 0,
            "TEXCOORD_0": 2
          },
          "indices": 3,
          "material": 0,
          "mode": 4
        }
      ]
    },
    {
      "name": "Object_1",
      "primitives": [
        {
          "attributes": {
            "NORMAL": 5,
            "POSITION": 4,
            "TEXCOORD_0": 6
          },
          "indices": 7,
          "material": 2,
          "mode": 4
        }
      ]
    },
    {
      "name": "Object_2",
      "primitives": [
        {
          "attributes": {
            "NORMAL": 9,
            "POSITION": 8,
            "TEXCOORD_0": 10
          },
          "indices": 11,
          "material": 3,
          "mode": 4
        }
      ]
    },
    {
      "name": "Object_3",
      "primitives": [
        {
          "attributes": {
            "NORMAL": 13,
            "POSITION": 12,
            "TEXCOORD_0": 14
          },
          "indices": 15,
          "material": 5,
          "mode": 4
        }
      ]
    },
    {
      "name": "Object_4",
      "primitives": [
        {
          "attributes": {
            "NORMAL": 17,
            "POSITION": 16,
            "TEXCOORD_0": 18
          },
          "indices": 19,
          "material": 6,
          "mode": 4
        }
      ]
    },
    {
      "name": "Object_5",
      "primitives": [
        {
          "attributes": {
            "NORMAL": 21,
            "POSITION": 20,
            "TEXCOORD_0": 22
          },
          "indices": 23,
          "material": 1,
          "mode": 4
        }
      ]
    },
    {
      "name": "Object_6",
      "primitives": [
        {
          "attributes": {
            "NORMAL": 25,
            "POSITION": 24,
            "TEXCOORD_0": 26
          },
          "indices": 27,
          "material": 1,
          "mode": 4
        }
      ]
    },
    {
      "name": "Object_7",
      "primitives": [
        {
          "attributes": {
            "NORMAL": 29,
            "POSITION": 28,
            "TEXCOORD_0": 30
          },
          "indices": 31,
          "material": 1,
          "mode": 4
        }
      ]
    },
    {
      "name": "Object_8",
      "primitives": [
        {
          "attributes": {
            "NORMAL": 33,
            "POSITION": 32,
            "TEXCOORD_0": 34
          },
          "indices": 35,
          "material": 1,
          "mode": 4
        }
      ]
    },
    {
      "name": "Object_9",
      "primitives": [
        {
          "attributes": {
            "NORMAL": 37,
            "POSITION": 36,
            "TEXCOORD_0": 38
          },
          "indices": 39,
          "material": 4,
          "mode": 4
        }
      ]
    }
  ],
  "nodes": [
    {
      "children": [
        1
      ],
      "matrix": [
        0.28688281774520874,
        0.0,
        0.0,
        0.0,
        0.0,
        6.370078192601464e-17,
        -0.28688281774520874,
        0.0,
        0.0,
        0.28688281774520874,
        6.370078192601464e-17,
        0.0,
        0.0,
        0.0,
        0.0,
        1.0
      ],
      "name": "Sketchfab_model"
    },
    {
      "children": [
        2,
        3,
        4,
        5,
        6,
        7,
        8,
        9,
        10,
        11
      ],
      "name": "ps1.obj.cleaner.materialmerger.gles"
    },
    {
      "mesh": 0,
      "name": "Object_2"
    },
    {
      "mesh": 1,
      "name": "Object_3"
    },
    {
      "mesh": 2,
      "name": "Object_4"
    },
    {
      "mesh": 3,
      "name": "Object_5"
    },
    {
      "mesh": 4,
      "name": "Object_6"
    },
    {
      "mesh": 5,
      "name": "Object_7"
    },
    {
      "mesh": 6,
      "name": "Object_8"
    },
    {
      "mesh": 7,
      "name": "Object_9"
    },
    {
      "mesh": 8,
      "name": "Object_10"
    },
    {
      "mesh": 9,
      "name": "Object_11"
    }
  ],
  "samplers": [
    {
      "magFilter": 9729,
      "minFilter": 9987,
      "wrapS": 10497,
      "wrapT": 10497
    }
  ],
  "scene": 0,
  "scenes": [
    {
      "name": "Sketchfab_Scene",
      "nodes": [
        0
      ]
    }
  ],
  "textures": [
    {
      "sampler": 0,
      "source": 0
    },
    {
      "sampler": 0,
      "source": 1
    }
  ]
}
