{
  "accessors": [
    {
      "bufferView": 2,
      "componentType": 5126,
      "count": 1011,
      "max": [
        1.0,
        1.852805495262146,
        0.3941548466682434
      ],
      "min": [
        -1.0,
        -2.702641248703003,
        -0.3941548466682434
      ],
      "type": "VEC3"
    },
    {
      "bufferView": 2,
      "byteOffset": 12132,
      "componentType": 5126,
      "count": 1011,
      "max": [
        1.0,
        1.0,
        1.0
      ],
      "min": [
        -1.0,
        -1.0,
        -0.9974558353424072
      ],
      "type": "VEC3"
    },
    {
      "bufferView": 1,
      "componentType": 5126,
      "count": 1011,
      "max": [
        0.7415818572044373,
        0.7514639496803284
      ],
      "min": [
        -0.03787817060947418,
        0.0
      ],
      "type": "VEC2"
    },
    {
      "bufferView": 1,
      "byteOffset": 8088,
      "componentType": 5126,
      "count": 1011,
      "max": [
        0.875,
        1.0
      ],
      "min": [
        0.0,
        0.0
      ],
      "type": "VEC2"
    },
    {
      "bufferView": 1,
      "byteOffset": 16176,
      "componentType": 5126,
      "count": 1011,
      "max": [
        0.875,
        1.0000001192092896
      ],
      "min": [
        0.0,
        0.0
      ],
      "type": "VEC2"
    },
    {
      "bufferView": 0,
      "componentType": 5125,
      "count": 2112,
      "type": "SCALAR"
    },
    {
      "bufferView": 2,
      "byteOffset": 24264,
      "componentType": 5126,
      "count": 152,
      "max": [
        0.6800094246864319,
        -2.0253138542175293,
        0.22432735562324524
      ],
      "min": [
        -0.6800094246864319,
        -3.2218263149261475,
        -0.22432735562324524
      ],
      "type": "VEC3"
    },
    {
      "bufferView": 2,
      "byteOffset": 26088,
      "componentType": 5126,
      "count": 152,
      "max": [
        1.0,
        1.0,
        1.0
      ],
      "min": [
        -1.0,
        -1.0,
        -1.0
      ],
      "type": "VEC3"
    },
    {
      "bufferView": 1,
      "byteOffset": 24264,
      "componentType": 5126,
      "count": 152,
      "max": [
        0.5711418986320496,
        0.9787716269493103
      ],
      "min": [
        0.0,
        0.0
      ],
      "type": "VEC2"
    },
    {
      "bufferView": 1,
      "byteOffset": 25480,
      "componentType": 5126,
      "count": 152,
      "max": [
        0.5266767740249634,
        0.1826504021883011
      ],
      "min": [
        0.0,
        0.0
      ],
      "type": "VEC2"
    },
    {
      "bufferView": 1,
      "byteOffset": 26696,
      "componentType": 5126,
      "count": 152,
      "max": [
        0.625,
        1.0
      ],
      "min": [
        0.0,
        0.0
      ],
      "type": "VEC2"
    },
    {
      "bufferView": 0,
      "byteOffset": 8448,
      "componentType": 5125,
      "count": 348,
      "type": "SCALAR"
    },
    {
      "bufferView": 2,
      "byteOffset": 27912,
      "componentType": 5126,
      "count": 60,
      "max": [
        0.5879539251327515,
        -2.107722520828247,
        -0.0018994975835084915
      ],
      "min": [
        -0.5880127549171448,
        -3.115939140319824,
        -0.001899508759379387
      ],
      "type": "VEC3"
    },
    {
      "bufferView": 2,
      "byteOffset": 28632,
      "componentType": 5126,
      "count": 60,
      "max": [
        -6.847386213593154e-09,
        0.0,
        -1.0
      ],
      "min": [
        -1.9508561877046304e-08,
        0.0,
        -1.0
      ],
      "type": "VEC3"
    },
    {
      "bufferView": 1,
      "byteOffset": 27912,
      "componentType": 5126,
      "count": 60,
      "max": [
        0.4993976354598999,
        0.9511911869049072
      ],
      "min": [
        0.4993975758552551,
        0.7988088130950928
      ],
      "type": "VEC2"
    },
    {
      "bufferView": 1,
      "byteOffset": 28392,
      "componentType": 5126,
      "count": 60,
      "max": [
        0.6365225315093994,
        0.3372418284416199
      ],
      "min": [
        0.37782999873161316,
        0.09769706428050995
      ],
      "type": "VEC2"
    },
    {
      "bufferView": 1,
      "byteOffset": 28872,
      "componentType": 5126,
      "count": 60,
      "max": [
        0.0,
        0.0
      ],
      "min": [
        0.0,
        0.0
      ],
      "type": "VEC2"
    },
    {
      "bufferView": 0,
      "byteOffset": 9840,
      "componentType": 5125,
      "count": 156,
      "type": "SCALAR"
    },
    {
      "bufferView": 2,
      "byteOffset": 29352,
      "componentType": 5126,
      "count": 102,
      "max": [
        0.6583796143531799,
        -2.107722520828247,
        0.1973339021205902
      ],
      "min": [
        -0.6583796143531799,
        -3.2218263149261475,
        -0.0018995106220245361
      ],
      "type": "VEC3"
    },
    {
      "bufferView": 2,
      "byteOffset": 30576,
      "componentType": 5126,
      "count": 102,
      "max": [
        0.0,
        0.0,
        -2.2720169567946868e-07
      ],
      "min": [
        -2.8401103691066965e-08,
        -1.0,
        -1.0
      ],
      "type": "VEC3"
    },
    {
      "bufferView": 1,
      "byteOffset": 29352,
      "componentType": 5126,
      "count": 102,
      "max": [
        0.5666046738624573,
        0.9765883684158325
      ],
      "min": [
        0.4993975758552551,
        0.7734116911888123
      ],
      "type": "VEC2"
    },
    {
      "bufferView": 1,
      "byteOffset": 30168,
      "componentType": 5126,
      "count": 102,
      "max": [
        0.5262563228607178,
        0.1824481338262558
      ],
      "min": [
        0.5200290679931641,
        0.1636221557855606
      ],
      "type": "VEC2"
    },
    {
      "bufferView": 1,
      "byteOffset": 30984,
      "componentType": 5126,
      "count": 102,
      "max": [
        0.0,
        0.0
      ],
      "min": [
        0.0,
        0.0
      ],
      "type": "VEC2"
    },
    {
      "bufferView": 0,
      "byteOffset": 10464,
      "componentType": 5125,
      "count": 306,
      "type": "SCALAR"
    },
    {
      "bufferView": 2,
      "byteOffset": 31800,
      "componentType": 5126,
      "count": 292,
      "max": [
        1.0,
        -1.2839006185531616,
        0.3941548764705658
      ],
      "min": [
        -1.0,
        -3.383227825164795,
        -0.3941548466682434
      ],
      "type": "VEC3"
    },
    {
      "bufferView": 2,
      "byteOffset": 35304,
      "componentType": 5126,
      "count": 292,
      "max": [
        1.0,
        0.9906907677650452,
        1.0
      ],
      "min": [
        -1.0,
        -1.0,
        -1.0
      ],
      "type": "VEC3"
    },
    {
      "bufferView": 1,
      "byteOffset": 31800,
      "componentType": 5126,
      "count": 292,
      "max": [
        0.0,
        0.0
      ],
      "min": [
        0.0,
        0.0
      ],
      "type": "VEC2"
    },
    {
      "bufferView": 1,
      "byteOffset": 34136,
      "componentType": 5126,
      "count": 292,
      "max": [
        0.0,
        0.0
      ],
      "min": [
        0.0,
        0.0
      ],
      "type": "VEC2"
    },
    {
      "bufferView": 0,
      "byteOffset": 11688,
      "componentType": 5125,
      "count": 996,
      "type": "SCALAR"
    }
  ],
  "asset": {
    "extras": {
      "author": "Artik (https://sketchfab.com/artikdev)",
      "license": "CC-BY-4.0 (http://creativecommons.org/licenses/by/4.0/)",
      "source": "https://sketchfab.com/3d-models/usb-flash-drive-b7cfb7e2809e4c64afb713140c982489",
      "title": "USB Flash Drive"
    },
    "generator": "Sketchfab-15.30.0",
    "version": "2.0"
  },
  "bufferViews": [
    {
      "buffer": 0,
      "byteLength": 15672,
      "name": "floatBufferViews",
      "target": 34963
    },
    {
      "buffer": 0,
      "byteLength": 36472,
      "byteOffset": 15672,
      "byteStride": 8,
      "name": "floatBufferViews",
      "target": 34962
    },
    {
      "buffer": 0,
      "byteLength": 38808,
      "byteOffset": 52144,
      "byteStride": 12,
      "name": "floatBufferViews",
      "target": 34962
    }
  ],
  "buffers": [
    {
      "byteLength": 90952,
      "uri": "scene.bin"
    }
  ],
  "extensionsUsed": [
    "KHR_materials_specular"
  ],
  "images": [
    {
      "uri": "textures/Base_Model_baseColor.png"
    }
  ],
  "materials": [
    {
      "doubleSided": true,
      "name": "Base_Model",
      "pbrMetallicRoughness": {
        "baseColorTexture": {
          "index": 0
        },
        "metallicFactor": 0.0,
        "roughnessFactor": 0.8211145618000169
      }
    },
    {
      "doubleSided": true,
      "extensions": {
        "KHR_materials_specular": {
          "specularColorFactor": [
            1.0,
            1.0,
            1.0
          ],
          "specularFactor": 0.4678109495190842
        }
      },
      "name": "Metallic",
      "pbrMetallicRoughness": {
        "metallicFactor": 0.7481927563969718,
        "roughnessFactor": 0.6723799539198596
      }
    },
    {
      "doubleSided": true,
      "name": "Brushed_Copper.001",
      "pbrMetallicRoughness": {
        "baseColorFactor": [
          0.5651569999999998,
          0.29889000000000004,
          0.040007300000000016,
          1.0
        ],
        "roughnessFactor": 0.6053321305360169
      }
    },
    {
      "doubleSided": true,
      "name": "Plastic",
      "pbrMetallicRoughness": {
        "baseColorFactor": [
          0.0,
          0.37326099999999984,
          0.7999999999999999,
          1.0
        ],
        "metallicFactor": 0.0,
        "roughnessFactor": 0.5
      }
    }
  ],
  "meshes": [
    {
      "name": "Cube_Base Model_0",
      "primitives": [
        {
          "attributes": {
            "NORMAL": 1,
            "POSITION": 0,
            "TEXCOORD_0": 2,
            "TEXCOORD_1": 3,
            "TEXCOORD_2": 4
          },
          "indices": 5,
          "material": 0,
          "mode": 4
        }
      ]
    },
    {
      "name": "Cube_Metallic_0",
      "primitives": [
        {
          "attributes": {
            "NORMAL": 7,
            "POSITION": 6,
            "TEXCOORD_0": 8,
            "TEXCOORD_1": 9,
            "TEXCOORD_2": 10
          },
          "indices": 11,
          "material": 1,
          "mode": 4
        }
      ]
    },
    {
      "name": "Cube_Brushed Copper.001_0",
      "primitives": [
        {
          "attributes": {
            "NORMAL": 13,
            "POSITION": 12,
            "TEXCOORD_0": 14,
            "TEXCOORD_1": 15,
            "TEXCOORD_2": 16
          },
          "indices": 17,
          "material": 2,
          "mode": 4
        }
      ]
    },
    {
      "name": "Cube_Plastic_0",
      "primitives": [
        {
          "attributes": {
            "NORMAL": 19,
            "POSITION": 18,
            "TEXCOORD_0": 20,
            "TEXCOORD_1": 21,
            "TEXCOORD_2": 22
          },
          "indices": 23,
          "material": 3,
          "mode": 4
        }
      ]
    },
    {
      "name": "Cube.001_Base Model_0",
      "primitives": [
        {
          "attributes": {
            "NORMAL": 25,
            "POSITION": 24,
            "TEXCOORD_0": 26,
            "TEXCOORD_1": 27
          },
          "indices": 28,
          "material": 0,
          "mode": 4
        }
      ]
    }
  ],
  "nodes": [
    {
      "children": [
        1
      ],
      "matrix": [
        0.3090342879295349,
        0.0,
        0.0,
        0.0,
        0.0,
        6.861939637160195e-17,
        -0.3090342879295349,
        0.0,
        0.0,
        0.3090342879295349,
        6.861939637160195e-17,
        0.0,
        0.0,
        0.0,
        0.0,
        1.0
      ],
      "name": "Sketchfab_model"
    },
    {
      "children": [
        2
      ],
      "matrix": [
        0.009999999776482582,
        0.0,
        0.0,
        0.0,
        0.0,
        0.0,
        0.009999999776482582,
        0.0,
        0.0,
        -0.009999999776482582,
        0.0,
        0.0,
        0.0,
        0.0,
        0.0,
        1.0
      ],
      "name": "01517a269f6e499eb8708751d7d07674.fbx"
    },
    {
      "children": [
        3,
        8,
        11
      ],
      "name": "RootNode"
    },
    {
      "children": [
        4,
        5,
        6,
        7
      ],
      "matrix": [
        99.9999999999996,
        8.742277980456488e-06,
        -0.0,
        -0.0,
        1.4242978711041864e-12,
        -1.6292067994694293e-05,
        -99.99999999999865,
        -0.0,
        8.74227798045637e-06,
        -99.99999999999828,
        1.6292067983592062e-05,
        -0.0,
        0.0,
        0.0,
        0.0,
        1.0
      ],
      "name": "Cube"
    },
    {
      "mesh": 0,
      "name": "Cube_Base Model_0"
    },
    {
      "mesh": 1,
      "name": "Cube_Metallic_0"
    },
    {
      "mesh": 2,
      "name": "Cube_Brushed Copper.001_0"
    },
    {
      "mesh": 3,
      "name": "Cube_Plastic_0"
    },
    {
      "children": [
        9
      ],
      "matrix": [
        -5.714066877708324,
        26.03419453477574,
        -96.38241621085524,
        0.0,
        0.08529683978989316,
        96.54139474005619,
        26.07207993184926,
        0.0,
        99.83658490284554,
        1.4075649285744332,
        -5.538646205322095,
        0.0,
        407.6245422363281,
        590.38623046875,
        -100.54539489746094,
        1.0
      ],
      "name": "Light"
    },
    {
      "children": [
        10
      ],
      "matrix": [
        1.0,
        0.0,
        0.0,
        0.0,
        0.0,
        2.220446049250313e-16,
        1.0,
        0.0,
        0.0,
        -1.0,
        2.220446049250313e-16,
        0.0,
        0.0,
        0.0,
        0.0,
        1.0
      ],
      "name": "Object_9"
    },
    {
      "name": "Object_10"
    },
    {
      "children": [
        12
      ],
      "matrix": [
        99.9999999999996,
        8.742277980456488e-06,
        -0.0,
        -0.0,
        1.4242978711041864e-12,
        -1.6292067994694293e-05,
        -99.99999999999865,
        -0.0,
        8.74227798045637e-06,
        -99.99999999999828,
        1.6292067983592062e-05,
        -0.0,
        0.0,
        0.0,
        264.38592529296875,
        1.0
      ],
      "name": "Cube.001"
    },
    {
      "mesh": 4,
      "name": "Cube.001_Base Model_0"
    }
  ],
  "samplers": [
    {
      "magFilter": 9729,
      "minFilter": 9987,
      "wrapS": 10497,
      "wrapT": 10497
    }
  ],
  "scene": 0,
  "scenes": [
    {
      "name": "Sketchfab_Scene",
      "nodes": [
        0
      ]
    }
  ],
  "textures": [
    {
      "sampler": 0,
      "source": 0
    }
  ]
}
