{
  "accessors": [
    {
      "bufferView": 2,
      "componentType": 5126,
      "count": 2126,
      "max": [
        1.0514222383499146,
        0.36258256435394287,
        0.8963082432746887
      ],
      "min": [
        -1.0514222383499146,
        -0.36258256435394287,
        -0.896308183670044
      ],
      "type": "VEC3"
    },
    {
      "bufferView": 2,
      "byteOffset": 25512,
      "componentType": 5126,
      "count": 2126,
      "max": [
        1.0,
        1.0,
        1.0
      ],
      "min": [
        -1.0,
        -1.0,
        -1.0
      ],
      "type": "VEC3"
    },
    {
      "bufferView": 1,
      "componentType": 5126,
      "count": 2126,
      "max": [
        0.7412850260734558,
        0.772051990032196
      ],
      "min": [
        0.2108583301305771,
        0.27654755115509033
      ],
      "type": "VEC2"
    },
    {
      "bufferView": 0,
      "componentType": 5125,
      "count": 4293,
      "type": "SCALAR"
    },
    {
      "bufferView": 2,
      "byteOffset": 51024,
      "componentType": 5126,
      "count": 108,
      "max": [
        0.7863894701004028,
        0.2710448205471039,
        0.860093891620636
      ],
      "min": [
        0.7524742484092712,
        0.2371295988559723,
        0.8510320782661438
      ],
      "type": "VEC3"
    },
    {
      "bufferView": 2,
      "byteOffset": 52320,
      "componentType": 5126,
      "count": 108,
      "max": [
        0.9238789677619934,
        0.9238805174827576,
        1.0
      ],
      "min": [
        -0.9238805174827576,
        -0.9238805174827576,
        -0.2528775930404663
      ],
      "type": "VEC3"
    },
    {
      "bufferView": 1,
      "byteOffset": 17008,
      "componentType": 5126,
      "count": 108,
      "max": [
        0.6291225552558899,
        0.3377060890197754
      ],
      "min": [
        0.6166256070137024,
        0.3081340193748474
      ],
      "type": "VEC2"
    },
    {
      "bufferView": 0,
      "byteOffset": 17172,
      "componentType": 5125,
      "count": 168,
      "type": "SCALAR"
    },
    {
      "bufferView": 2,
      "byteOffset": 53616,
      "componentType": 5126,
      "count": 1755,
      "max": [
        1.0,
        0.8378640413284302,
        0.6952019929885864
      ],
      "min": [
        -1.0,
        -1.1182239055633545,
        -0.7922985553741455
      ],
      "type": "VEC3"
    },
    {
      "bufferView": 2,
      "byteOffset": 74676,
      "componentType": 5126,
      "count": 1755,
      "max": [
        1.0,
        1.0,
        1.0
      ],
      "min": [
        -1.0,
        -1.0,
        -1.0
      ],
      "type": "VEC3"
    },
    {
      "bufferView": 1,
      "byteOffset": 17872,
      "componentType": 5126,
      "count": 1755,
      "max": [
        0.8018651604652405,
        0.7643819451332092
      ],
      "min": [
        0.22230148315429688,
        0.31629812717437744
      ],
      "type": "VEC2"
    },
    {
      "bufferView": 0,
      "byteOffset": 17844,
      "componentType": 5125,
      "count": 5571,
      "type": "SCALAR"
    },
    {
      "bufferView": 2,
      "byteOffset": 95736,
      "componentType": 5126,
      "count": 4,
      "max": [
        0.8939827680587769,
        2.1239891623281437e-08,
        0.916069746017456
      ],
      "min": [
        -0.8895654082298279,
        -3.668708004056498e-09,
        -0.5140879154205322
      ],
      "type": "VEC3"
    },
    {
      "bufferView": 2,
      "byteOffset": 95784,
      "componentType": 5126,
      "count": 4,
      "max": [
        0.0,
        1.0,
        1.7416681430404424e-08
      ],
      "min": [
        0.0,
        1.0,
        1.7416681430404424e-08
      ],
      "type": "VEC3"
    },
    {
      "bufferView": 1,
      "byteOffset": 31912,
      "componentType": 5126,
      "count": 4,
      "max": [
        1.0,
        1.0
      ],
      "min": [
        0.0,
        0.0
      ],
      "type": "VEC2"
    },
    {
      "bufferView": 0,
      "byteOffset": 40128,
      "componentType": 5125,
      "count": 6,
      "type": "SCALAR"
    },
    {
      "bufferView": 2,
      "byteOffset": 95832,
      "componentType": 5126,
      "count": 11525,
      "max": [
        1.5220744609832764,
        0.07016084343194962,
        0.49754366278648376
      ],
      "min": [
        -1.0,
        -0.060794174671173096,
        -3.3012630939483643
      ],
      "type": "VEC3"
    },
    {
      "bufferView": 2,
      "byteOffset": 234132,
      "componentType": 5126,
      "count": 11525,
      "max": [
        1.0,
        0.9997392892837524,
        1.0
      ],
      "min": [
        -1.0,
        -1.0,
        -1.0
      ],
      "type": "VEC3"
    },
    {
      "bufferView": 1,
      "byteOffset": 31944,
      "componentType": 5126,
      "count": 11525,
      "max": [
        0.6815000176429749,
        0.7957043647766113
      ],
      "min": [
        0.22949984669685364,
        0.34415560960769653
      ],
      "type": "VEC2"
    },
    {
      "bufferView": 0,
      "byteOffset": 40152,
      "componentType": 5125,
      "count": 17934,
      "type": "SCALAR"
    },
    {
      "bufferView": 2,
      "byteOffset": 372432,
      "componentType": 5126,
      "count": 192,
      "max": [
        1.0,
        1.0,
        1.0
      ],
      "min": [
        -1.0,
        -1.0,
        -1.0
      ],
      "type": "VEC3"
    },
    {
      "bufferView": 2,
      "byteOffset": 374736,
      "componentType": 5126,
      "count": 192,
      "max": [
        0.9951848387718201,
        1.0,
        0.9951848387718201
      ],
      "min": [
        -0.9951848983764648,
        -1.0,
        -0.9951847791671753
      ],
      "type": "VEC3"
    },
    {
      "bufferView": 1,
      "byteOffset": 124144,
      "componentType": 5126,
      "count": 192,
      "max": [
        0.7119999527931213,
        0.7487562298774719
      ],
      "min": [
        0.7119999527931213,
        0.7487562298774719
      ],
      "type": "VEC2"
    },
    {
      "bufferView": 0,
      "byteOffset": 111888,
      "componentType": 5125,
      "count": 372,
      "type": "SCALAR"
    },
    {
      "bufferView": 2,
      "byteOffset": 377040,
      "componentType": 5126,
      "count": 192,
      "max": [
        1.0,
        1.0,
        1.0
      ],
      "min": [
        -1.0,
        -1.0,
        -1.0
      ],
      "type": "VEC3"
    },
    {
      "bufferView": 2,
      "byteOffset": 379344,
      "componentType": 5126,
      "count": 192,
      "max": [
        0.9951848387718201,
        1.0,
        0.9951848387718201
      ],
      "min": [
        -0.9951848983764648,
        -1.0,
        -0.9951847791671753
      ],
      "type": "VEC3"
    },
    {
      "bufferView": 1,
      "byteOffset": 125680,
      "componentType": 5126,
      "count": 192,
      "max": [
        0.7119999527931213,
        0.7487562298774719
      ],
      "min": [
        0.7119999527931213,
        0.7487562298774719
      ],
      "type": "VEC2"
    },
    {
      "bufferView": 0,
      "byteOffset": 113376,
      "componentType": 5125,
      "count": 372,
      "type": "SCALAR"
    },
    {
      "bufferView": 2,
      "byteOffset": 381648,
      "componentType": 5126,
      "count": 192,
      "max": [
        1.0,
        1.0,
        1.0
      ],
      "min": [
        -1.0,
        -1.0,
        -1.0
      ],
      "type": "VEC3"
    },
    {
      "bufferView": 2,
      "byteOffset": 383952,
      "componentType": 5126,
      "count": 192,
      "max": [
        0.9951848387718201,
        1.0,
        0.9951848387718201
      ],
      "min": [
        -0.9951848983764648,
        -1.0,
        -0.9951847791671753
      ],
      "type": "VEC3"
    },
    {
      "bufferView": 1,
      "byteOffset": 127216,
      "componentType": 5126,
      "count": 192,
      "max": [
        0.7119999527931213,
        0.7487562298774719
      ],
      "min": [
        0.7119999527931213,
        0.7487562298774719
      ],
      "type": "VEC2"
    },
    {
      "bufferView": 0,
      "byteOffset": 114864,
      "componentType": 5125,
      "count": 372,
      "type": "SCALAR"
    }
  ],
  "asset": {
    "extras": {
      "author": "berilbasak (https://sketchfab.com/berilbaska)",
      "license": "CC-BY-4.0 (http://creativecommons.org/licenses/by/4.0/)",
      "source": "https://sketchfab.com/3d-models/ibm-pc-9373fc1154c84e6c943b8e17f56882d6",
      "title": "IBM PC"
    },
    "generator": "Sketchfab-12.65.0",
    "version": "2.0"
  },
  "bufferViews": [
    {
      "buffer": 0,
      "byteLength": 116352,
      "name": "floatBufferViews",
      "target": 34963
    },
    {
      "buffer": 0,
      "byteLength": 128752,
      "byteOffset": 116352,
      "byteStride": 8,
      "name": "floatBufferViews",
      "target": 34962
    },
    {
      "buffer": 0,
      "byteLength": 386256,
      "byteOffset": 245104,
      "byteStride": 12,
      "name": "floatBufferViews",
      "target": 34962
    }
  ],
  "buffers": [
    {
      "byteLength": 631360,
      "uri": "scene.bin"
    }
  ],
  "images": [
    {
      "uri": "textures/Material_baseColor.jpeg"
    },
    {
      "uri": "textures/Material.002_baseColor.jpeg"
    }
  ],
  "materials": [
    {
      "doubleSided": true,
      "name": "Material",
      "pbrMetallicRoughness": {
        "baseColorTexture": {
          "index": 0
        },
        "metallicFactor": 0.0,
        "roughnessFactor": 0.8040408206
      }
    },
    {
      "doubleSided": true,
      "name": "Material.001",
      "pbrMetallicRoughness": {
        "baseColorTexture": {
          "index": 0
        },
        "metallicFactor": 0.0,
        "roughnessFactor": 0.8211145618
      }
    },
    {
      "doubleSided": true,
      "name": "Material.002",
      "pbrMetallicRoughness": {
        "baseColorTexture": {
          "index": 1
        },
        "metallicFactor": 0.0,
        "roughnessFactor": 0.7490028516
      }
    }
  ],
  "meshes": [
    {
      "name": "Object_0",
      "primitives": [
        {
          "attributes": {
            "NORMAL": 1,
            "POSITION": 0,
            "TEXCOORD_0": 2
          },
          "indices": 3,
          "material": 0,
          "mode": 4
        }
      ]
    },
    {
      "name": "Object_1",
      "primitives": [
        {
          "attributes": {
            "NORMAL": 5,
            "POSITION": 4,
            "TEXCOORD_0": 6
          },
          "indices": 7,
          "material": 1,
          "mode": 4
        }
      ]
    },
    {
      "name": "Object_2",
      "primitives": [
        {
          "attributes": {
            "NORMAL": 9,
            "POSITION": 8,
            "TEXCOORD_0": 10
          },
          "indices": 11,
          "material": 0,
          "mode": 4
        }
      ]
    },
    {
      "name": "Object_3",
      "primitives": [
        {
          "attributes": {
            "NORMAL": 13,
            "POSITION": 12,
            "TEXCOORD_0": 14
          },
          "indices": 15,
          "material": 2,
          "mode": 4
        }
      ]
    },
    {
      "name": "Object_4",
      "primitives": [
        {
          "attributes": {
            "NORMAL": 17,
            "POSITION": 16,
            "TEXCOORD_0": 18
          },
          "indices": 19,
          "material": 1,
          "mode": 4
        }
      ]
    },
    {
      "name": "Object_5",
      "primitives": [
        {
          "attributes": {
            "NORMAL": 21,
            "POSITION": 20,
            "TEXCOORD_0": 22
          },
          "indices": 23,
          "material": 1,
          "mode": 4
        }
      ]
    },
    {
      "name": "Object_6",
      "primitives": [
        {
          "attributes": {
            "NORMAL": 25,
            "POSITION": 24,
            "TEXCOORD_0": 26
          },
          "indices": 27,
          "material": 1,
          "mode": 4
        }
      ]
    },
    {
      "name": "Object_7",
      "primitives": [
        {
          "attributes": {
            "NORMAL": 29,
            "POSITION": 28,
            "TEXCOORD_0": 30
          },
          "indices": 31,
          "material": 1,
          "mode": 4
        }
      ]
    }
  ],
  "nodes": [
    {
      "children": [
        1
      ],
      "matrix": [
        1.0,
        0.0,
        0.0,
        0.0,
        0.0,
        2.220446049250313e-16,
        -1.0,
        0.0,
        0.0,
        1.0,
        2.220446049250313e-16,
        0.0,
        0.0,
        0.0,
        0.0,
        1.0
      ],
      "name": "Sketchfab_model"
    },
    {
      "children": [
        2
      ],
      "name": "root"
    },
    {
      "children": [
        3,
        5,
        7,
        9,
        11,
        13,
        15,
        17
      ],
      "matrix": [
        1.0,
        0.0,
        0.0,
        0.0,
        0.0,
        2.220446049250313e-16,
        1.0,
        0.0,
        0.0,
        -1.0,
        2.220446049250313e-16,
        0.0,
        0.0,
        0.0,
        0.0,
        1.0
      ],
      "name": "GLTF_SceneRootNode"
    },
    {
      "children": [
        4
      ],
      "matrix": [
        1.0,
        0.0,
        0.0,
        0.0,
        0.0,
        1.0,
        0.0,
        0.0,
        0.0,
        0.0,
        1.0,
        0.0,
        0.0,
        0.3721029758453369,
        0.0,
        1.0
      ],
      "name": "pc_0"
    },
    {
      "mesh": 0,
      "name": "Object_4"
    },
    {
      "children": [
        6
      ],
      "matrix": [
        1.0,
        0.0,
        0.0,
        0.0,
        0.0,
        1.0,
        0.0,
        0.0,
        0.0,
        0.0,
        1.0,
        0.0,
        0.0,
        0.3721029758453369,
        0.0,
        1.0
      ],
      "name": "red_button_1"
    },
    {
      "mesh": 1,
      "name": "Object_6"
    },
    {
      "children": [
        8
      ],
      "matrix": [
        1.0,
        0.0,
        0.0,
        0.0,
        0.0,
        1.0,
        0.0,
        0.0,
        0.0,
        0.0,
        1.0,
        0.0,
        0.0,
        1.8740620613098145,
        0.0,
        1.0
      ],
      "name": "pc_monitor_2"
    },
    {
      "mesh": 2,
      "name": "Object_8"
    },
    {
      "children": [
        10
      ],
      "matrix": [
        1.0,
        0.0,
        0.0,
        0.0,
        0.0,
        0.0,
        1.0,
        0.0,
        0.0,
        -1.0,
        0.0,
        0.0,
        0.0,
        2.141547203063965,
        0.49491506814956665,
        1.0
      ],
      "name": "screen_3"
    },
    {
      "mesh": 3,
      "name": "Object_10"
    },
    {
      "children": [
        12
      ],
      "matrix": [
        1.0,
        0.0,
        0.0,
        0.0,
        0.0,
        1.0,
        0.0,
        0.0,
        0.0,
        0.0,
        1.0,
        0.0,
        0.0,
        0.07053612917661667,
        1.9842257499694824,
        1.0
      ],
      "name": "keyboard_4"
    },
    {
      "mesh": 4,
      "name": "Object_12"
    },
    {
      "children": [
        14
      ],
      "matrix": [
        1.3837839762942394e-09,
        -0.04643208533525463,
        -1.3837840175342156e-09,
        0.0,
        -4.4695773415474034e-10,
        4.4695772083436225e-10,
        -0.014997412450611577,
        0.0,
        0.04643208533525463,
        1.3837840175342156e-09,
        -1.3837839762942394e-09,
        0.0,
        0.23823657631874084,
        0.8999689817428589,
        0.6671115159988403,
        1.0
      ],
      "name": "Cylinder_5"
    },
    {
      "mesh": 5,
      "name": "Object_14"
    },
    {
      "children": [
        16
      ],
      "matrix": [
        1.3837839762942394e-09,
        -0.04643208533525463,
        -1.3837840175342156e-09,
        0.0,
        -4.4695773415474034e-10,
        4.4695772083436225e-10,
        -0.014997412450611577,
        0.0,
        0.04643208533525463,
        1.3837840175342156e-09,
        -1.3837839762942394e-09,
        0.0,
        0.3584784269332886,
        0.8999689817428589,
        0.6671115159988403,
        1.0
      ],
      "name": "Cylinder.001_6"
    },
    {
      "mesh": 6,
      "name": "Object_16"
    },
    {
      "children": [
        18
      ],
      "matrix": [
        1.3837839762942394e-09,
        -0.04643208533525463,
        -1.3837840175342156e-09,
        0.0,
        -4.4695773415474034e-10,
        4.4695772083436225e-10,
        -0.014997412450611577,
        0.0,
        0.04643208533525463,
        1.3837840175342156e-09,
        -1.3837839762942394e-09,
        0.0,
        0.4710124433040619,
        0.8999689817428589,
        0.6671115159988403,
        1.0
      ],
      "name": "Cylinder.002_7"
    },
    {
      "mesh": 7,
      "name": "Object_18"
    }
  ],
  "samplers": [
    {
      "magFilter": 9729,
      "minFilter": 9987,
      "wrapS": 10497,
      "wrapT": 10497
    }
  ],
  "scene": 0,
  "scenes": [
    {
      "name": "Sketchfab_Scene",
      "nodes": [
        0
      ]
    }
  ],
  "textures": [
    {
      "sampler": 0,
      "source": 0
    },
    {
      "sampler": 0,
      "source": 1
    }
  ]
}
