{
  "accessors": [
    {
      "bufferView": 2,
      "componentType": 5126,
      "count": 8082,
      "max": [
        1.0347758531570435,
        0.9994124174118042,
        0.9999994039535522
      ],
      "min": [
        -0.9994116425514221,
        -0.9994124174118042,
        -0.9999987483024597
      ],
      "type": "VEC3"
    },
    {
      "bufferView": 2,
      "byteOffset": 96984,
      "componentType": 5126,
      "count": 8082,
      "max": [
        1.0,
        1.0,
        1.0
      ],
      "min": [
        -0.9999778270721436,
        -1.0,
        -1.0
      ],
      "type": "VEC3"
    },
    {
      "bufferView": 1,
      "componentType": 5126,
      "count": 8082,
      "max": [
        0.9936617612838745,
        0.9933124780654907
      ],
      "min": [
        0.0063382238149642944,
        0.006338208913803101
      ],
      "type": "VEC2"
    },
    {
      "bufferView": 0,
      "componentType": 5125,
      "count": 23850,
      "type": "SCALAR"
    },
    {
      "bufferView": 2,
      "byteOffset": 193968,
      "componentType": 5126,
      "count": 192,
      "max": [
        0.7541577219963074,
        0.06206914782524109,
        0.06412920355796814
      ],
      "min": [
        0.747083842754364,
        -0.06618925929069519,
        -0.06412920355796814
      ],
      "type": "VEC3"
    },
    {
      "bufferView": 2,
      "byteOffset": 196272,
      "componentType": 5126,
      "count": 192,
      "max": [
        1.0,
        0.9951847195625305,
        0.9951847791671753
      ],
      "min": [
        -1.0,
        -0.9951847195625305,
        -0.9951847791671753
      ],
      "type": "VEC3"
    },
    {
      "bufferView": 1,
      "byteOffset": 64656,
      "componentType": 5126,
      "count": 192,
      "max": [
        1.0,
        1.0
      ],
      "min": [
        0.0,
        0.01000000536441803
      ],
      "type": "VEC2"
    },
    {
      "bufferView": 0,
      "byteOffset": 95400,
      "componentType": 5125,
      "count": 372,
      "type": "SCALAR"
    },
    {
      "bufferView": 2,
      "byteOffset": 198576,
      "componentType": 5126,
      "count": 445,
      "max": [
        1.4580307006835938,
        -0.08677766472101212,
        1.605422854423523
      ],
      "min": [
        -0.8463796377182007,
        -0.8598808646202087,
        -1.605422854423523
      ],
      "type": "VEC3"
    },
    {
      "bufferView": 2,
      "byteOffset": 203916,
      "componentType": 5126,
      "count": 445,
      "max": [
        1.0,
        0.9951847791671753,
        1.0
      ],
      "min": [
        -1.0,
        -1.0,
        -1.0
      ],
      "type": "VEC3"
    },
    {
      "bufferView": 1,
      "byteOffset": 66192,
      "componentType": 5126,
      "count": 445,
      "max": [
        0.9999999403953552,
        0.9330561757087708
      ],
      "min": [
        0.0,
        0.0
      ],
      "type": "VEC2"
    },
    {
      "bufferView": 0,
      "byteOffset": 96888,
      "componentType": 5125,
      "count": 1428,
      "type": "SCALAR"
    }
  ],
  "asset": {
    "extras": {
      "author": "moonbrosproductions (https://sketchfab.com/moonbrosproductions)",
      "license": "CC-BY-4.0 (http://creativecommons.org/licenses/by/4.0/)",
      "source": "https://sketchfab.com/3d-models/1999-logitech-quickcam-d93cac10bed04eafa6d1ca39767e729c",
      "title": "1999 Logitech Quickcam"
    },
    "generator": "Sketchfab-13.70.0",
    "version": "2.0"
  },
  "bufferViews": [
    {
      "buffer": 0,
      "byteLength": 102600,
      "name": "floatBufferViews",
      "target": 34963
    },
    {
      "buffer": 0,
      "byteLength": 69752,
      "byteOffset": 102600,
      "byteStride": 8,
      "name": "floatBufferViews",
      "target": 34962
    },
    {
      "buffer": 0,
      "byteLength": 209256,
      "byteOffset": 172352,
      "byteStride": 12,
      "name": "floatBufferViews",
      "target": 34962
    }
  ],
  "buffers": [
    {
      "byteLength": 381608,
      "uri": "scene.bin"
    }
  ],
  "images": [
    {
      "uri": "textures/Material.001_baseColor.png"
    },
    {
      "uri": "textures/Material.004_baseColor.png"
    }
  ],
  "materials": [
    {
      "doubleSided": true,
      "name": "Material.001",
      "pbrMetallicRoughness": {
        "baseColorTexture": {
          "index": 0
        },
        "metallicFactor": 0.0,
        "roughnessFactor": 0.6
      }
    },
    {
      "doubleSided": true,
      "name": "Material.002",
      "pbrMetallicRoughness": {
        "baseColorFactor": [
          0.8,
          0.8,
          0.8,
          1.0
        ],
        "metallicFactor": 0.0,
        "roughnessFactor": 0.0
      }
    },
    {
      "doubleSided": true,
      "name": "Material.004",
      "pbrMetallicRoughness": {
        "baseColorTexture": {
          "index": 1
        },
        "metallicFactor": 0.0,
        "roughnessFactor": 0.5
      }
    }
  ],
  "meshes": [
    {
      "name": "Object_0",
      "primitives": [
        {
          "attributes": {
            "NORMAL": 1,
            "POSITION": 0,
            "TEXCOORD_0": 2
          },
          "indices": 3,
          "material": 0,
          "mode": 4
        }
      ]
    },
    {
      "name": "Object_1",
      "primitives": [
        {
          "attributes": {
            "NORMAL": 5,
            "POSITION": 4,
            "TEXCOORD_0": 6
          },
          "indices": 7,
          "material": 1,
          "mode": 4
        }
      ]
    },
    {
      "name": "Object_2",
      "primitives": [
        {
          "attributes": {
            "NORMAL": 9,
            "POSITION": 8,
            "TEXCOORD_0": 10
          },
          "indices": 11,
          "material": 2,
          "mode": 4
        }
      ]
    }
  ],
  "nodes": [
    {
      "children": [
        1
      ],
      "matrix": [
        1.6820936131947532e-17,
        -2.9003230739936233e-17,
        0.07575476169586182,
        0.0,
        0.07575476169586182,
        1.2182294607988705e-17,
        -1.682093613194753e-17,
        0.0,
        -1.2182294607988701e-17,
        0.07575476169586182,
        2.9003230739936233e-17,
        0.0,
        0.0,
        0.0,
        0.0,
        1.0
      ],
      "name": "Sketchfab_model"
    },
    {
      "children": [
        2
      ],
      "name": "root"
    },
    {
      "children": [
        3,
        6
      ],
      "matrix": [
        1.0,
        0.0,
        0.0,
        0.0,
        0.0,
        2.220446049250313e-16,
        1.0,
        0.0,
        0.0,
        -1.0,
        2.220446049250313e-16,
        0.0,
        0.0,
        0.0,
        0.0,
        1.0
      ],
      "name": "GLTF_SceneRootNode"
    },
    {
      "children": [
        4,
        5
      ],
      "matrix": [
        1.0,
        0.0,
        0.0,
        0.0,
        0.0,
        1.0,
        0.0,
        0.0,
        0.0,
        0.0,
        1.0,
        0.0,
        0.0,
        1.4286192655563354,
        0.0,
        1.0
      ],
      "name": "Sphere_2"
    },
    {
      "mesh": 0,
      "name": "Object_4"
    },
    {
      "mesh": 1,
      "name": "Object_5"
    },
    {
      "children": [
        7
      ],
      "matrix": [
        1.0,
        0.0,
        0.0,
        0.0,
        0.0,
        1.0,
        0.0,
        0.0,
        0.0,
        0.0,
        1.0,
        0.0,
        -0.595962643623352,
        0.9125130772590637,
        0.012774745933711529,
        1.0
      ],
      "name": "Cube_3"
    },
    {
      "mesh": 2,
      "name": "Object_7"
    }
  ],
  "samplers": [
    {
      "magFilter": 9729,
      "minFilter": 9987,
      "wrapS": 10497,
      "wrapT": 10497
    }
  ],
  "scene": 0,
  "scenes": [
    {
      "name": "Sketchfab_Scene",
      "nodes": [
        0
      ]
    }
  ],
  "textures": [
    {
      "sampler": 0,
      "source": 0
    },
    {
      "sampler": 0,
      "source": 1
    }
  ]
}
