{
  "accessors": [
    {
      "bufferView": 2,
      "componentType": 5126,
      "count": 31070,
      "max": [
        0.4915076792240143,
        0.010452568531036377,
        0.16348427534103394
      ],
      "min": [
        0.12210431694984436,
        -0.30639171600341797,
        -0.0026920493692159653
      ],
      "type": "VEC3"
    },
    {
      "bufferView": 2,
      "byteOffset": 372840,
      "componentType": 5126,
      "count": 31070,
      "max": [
        1.0,
        1.0,
        1.0
      ],
      "min": [
        -1.0,
        -1.0,
        -1.0
      ],
      "type": "VEC3"
    },
    {
      "bufferView": 3,
      "componentType": 5126,
      "count": 31070,
      "max": [
        0.9999999403953552,
        1.0,
        1.0,
        1.0
      ],
      "min": [
        -1.0,
        -1.0,
        -1.0,
        -1.0
      ],
      "type": "VEC4"
    },
    {
      "bufferView": 1,
      "componentType": 5126,
      "count": 31070,
      "max": [
        0.9998188018798828,
        0.9997182488441467
      ],
      "min": [
        0.0001812279224395752,
        0.0001812279224395752
      ],
      "type": "VEC2"
    },
    {
      "bufferView": 1,
      "byteOffset": 248560,
      "componentType": 5126,
      "count": 31070,
      "max": [
        0.9998188018798828,
        0.9997182488441467
      ],
      "min": [
        0.0001812279224395752,
        0.0001812279224395752
      ],
      "type": "VEC2"
    },
    {
      "bufferView": 0,
      "componentType": 5125,
      "count": 94986,
      "type": "SCALAR"
    }
  ],
  "asset": {
    "extras": {
      "author": "Museum of Engineering and Technology, Krakow (https://sketchfab.com/mitkrakow)",
      "license": "CC-BY-NC-SA-4.0 (http://creativecommons.org/licenses/by-nc-sa/4.0/)",
      "source": "https://sketchfab.com/3d-models/tonette-reel-to-reel-tape-recorder-ec0a9694d1ae4809bf28b3bc041d9b0d",
      "title": "Tonette reel-to-reel tape recorder"
    },
    "generator": "Sketchfab-13.17.0",
    "version": "2.0"
  },
  "bufferViews": [
    {
      "buffer": 0,
      "byteLength": 379944,
      "name": "floatBufferViews",
      "target": 34963
    },
    {
      "buffer": 0,
      "byteLength": 497120,
      "byteOffset": 379944,
      "byteStride": 8,
      "name": "floatBufferViews",
      "target": 34962
    },
    {
      "buffer": 0,
      "byteLength": 745680,
      "byteOffset": 877064,
      "byteStride": 12,
      "name": "floatBufferViews",
      "target": 34962
    },
    {
      "buffer": 0,
      "byteLength": 497120,
      "byteOffset": 1622744,
      "byteStride": 16,
      "name": "floatBufferViews",
      "target": 34962
    }
  ],
  "buffers": [
    {
      "byteLength": 2119864,
      "uri": "scene.bin"
    }
  ],
  "extensionsUsed": [
    "KHR_materials_transmission"
  ],
  "images": [
    {
      "uri": "textures/MIM_210_Bake1_baked_baseColor.png"
    },
    {
      "uri": "textures/MIM_210_Bake1_baked_metallicRoughness.png"
    },
    {
      "uri": "textures/MIM_210_Bake1_baked_normal.jpeg"
    },
    {
      "uri": "textures/MIM_210_Bake1_baked_transmission.png"
    }
  ],
  "materials": [
    {
      "alphaMode": "BLEND",
      "doubleSided": true,
      "extensions": {
        "KHR_materials_transmission": {
          "transmissionFactor": 1.0,
          "transmissionTexture": {
            "index": 3
          }
        }
      },
      "name": "MIM_210_Bake1_baked",
      "normalTexture": {
        "index": 2
      },
      "pbrMetallicRoughness": {
        "baseColorTexture": {
          "index": 0
        },
        "metallicRoughnessTexture": {
          "index": 1
        }
      }
    }
  ],
  "meshes": [
    {
      "name": "MIM_210_Baked_MIM_210_Bake1_baked_0",
      "primitives": [
        {
          "attributes": {
            "NORMAL": 1,
            "POSITION": 0,
            "TANGENT": 2,
            "TEXCOORD_0": 3,
            "TEXCOORD_1": 4
          },
          "indices": 5,
          "material": 0,
          "mode": 4
        }
      ]
    }
  ],
  "nodes": [
    {
      "children": [
        1
      ],
      "matrix": [
        -1.0,
        -6.290011496532519e-32,
        2.832769343193999e-16,
        0.0,
        2.832769343193999e-16,
        -2.220446049250313e-16,
        1.0,
        0.0,
        0.0,
        1.0,
        2.220446049250313e-16,
        0.0,
        0.0,
        0.0,
        0.0,
        1.0
      ],
      "name": "Sketchfab_model"
    },
    {
      "children": [
        2
      ],
      "matrix": [
        1.0,
        0.0,
        0.0,
        0.0,
        0.0,
        0.0,
        1.0,
        0.0,
        0.0,
        -1.0,
        0.0,
        0.0,
        0.0,
        0.0,
        0.0,
        1.0
      ],
      "name": "Export.fbx"
    },
    {
      "children": [
        3
      ],
      "name": "RootNode"
    },
    {
      "children": [
        4
      ],
      "matrix": [
        99.97926914230271,
        -1.058206261402711e-07,
        2.0364841393837207,
        0.0,
        2.0364841393837025,
        1.9468564891177974e-05,
        -99.97926914230081,
        0.0,
        -2.906755032852648e-07,
        99.99999999999811,
        1.94666809449906e-05,
        0.0,
        0.0,
        0.0,
        0.0,
        1.0
      ],
      "name": "MIM_210_Baked"
    },
    {
      "mesh": 0,
      "name": "MIM_210_Baked_MIM_210_Bake1_baked_0"
    }
  ],
  "samplers": [
    {
      "magFilter": 9729,
      "minFilter": 9987,
      "wrapS": 10497,
      "wrapT": 10497
    }
  ],
  "scene": 0,
  "scenes": [
    {
      "name": "Sketchfab_Scene",
      "nodes": [
        0
      ]
    }
  ],
  "textures": [
    {
      "sampler": 0,
      "source": 0
    },
    {
      "sampler": 0,
      "source": 1
    },
    {
      "sampler": 0,
      "source": 2
    },
    {
      "sampler": 0,
      "source": 3
    }
  ]
}
